ISO-10303-21;
HEADER;
FILE_DESCRIPTION(('ViewDefinition [CoordinationView]'),'2;1');
ENDSEC;
DATA;
#10=IFCPROJECT('PROJECTGUID',$,'Wellness Center',$,$,$,$,$,$);
#20=IFCSITE('SITEGUID',$,'Main Site',$,$,$,$,$,$,$,$,$,$,$);
#30=IFCBUILDING('BUILDINGGUID',$,'Building A',$,$,$,$,$,$,$,$,$);
#40=IFCBUILDINGSTOREY('STOREYGUID',$,'Nivel 1',$,$,$,$,$,$);
#50=IFCWALLSTANDARDCASE('WALLGUID',$,'Muro exterior',$,$,$,$,$,$);
#60=IFCRELCONTAINEDINSPATIALSTRUCTURE('RELSTOREY',$,$,$,(#50),#40);
#1000=IFCCARTESIANPOINT((0.0,0.,0.));
#1001=IFCCARTESIANPOINT((1.0,0.,0.));
#1002=IFCCARTESIANPOINT((2.0,0.,0.));
#1003=IFCCARTESIANPOINT((3.0,0.,0.));
#1004=IFCCARTESIANPOINT((4.0,0.,0.));
#1005=IFCCARTESIANPOINT((5.0,0.,0.));
#1006=IFCCARTESIANPOINT((6.0,0.,0.));
#1007=IFCCARTESIANPOINT((7.0,0.,0.));
#1008=IFCCARTESIANPOINT((8.0,0.,0.));
#1009=IFCCARTESIANPOINT((9.0,0.,0.));
#1010=IFCCARTESIANPOINT((10.0,0.,0.));
#1011=IFCCARTESIANPOINT((11.0,0.,0.));
#1012=IFCCARTESIANPOINT((12.0,0.,0.));
#1013=IFCCARTESIANPOINT((13.0,0.,0.));
#1014=IFCCARTESIANPOINT((14.0,0.,0.));
#1015=IFCCARTESIANPOINT((15.0,0.,0.));
#1016=IFCCARTESIANPOINT((16.0,0.,0.));
#1017=IFCCARTESIANPOINT((17.0,0.,0.));
#1018=IFCCARTESIANPOINT((18.0,0.,0.));
#1019=IFCCARTESIANPOINT((19.0,0.,0.));
#1020=IFCCARTESIANPOINT((20.0,0.,0.));
#1021=IFCCARTESIANPOINT((21.0,0.,0.));
#1022=IFCCARTESIANPOINT((22.0,0.,0.));
#1023=IFCCARTESIANPOINT((23.0,0.,0.));
#1024=IFCCARTESIANPOINT((24.0,0.,0.));
#1025=IFCCARTESIANPOINT((25.0,0.,0.));
#1026=IFCCARTESIANPOINT((26.0,0.,0.));
#1027=IFCCARTESIANPOINT((27.0,0.,0.));
#1028=IFCCARTESIANPOINT((28.0,0.,0.));
#1029=IFCCARTESIANPOINT((29.0,0.,0.));
#1030=IFCCARTESIANPOINT((30.0,0.,0.));
#1031=IFCCARTESIANPOINT((31.0,0.,0.));
#1032=IFCCARTESIANPOINT((32.0,0.,0.));
#1033=IFCCARTESIANPOINT((33.0,0.,0.));
#1034=IFCCARTESIANPOINT((34.0,0.,0.));
#1035=IFCCARTESIANPOINT((35.0,0.,0.));
#1036=IFCCARTESIANPOINT((36.0,0.,0.));
#1037=IFCCARTESIANPOINT((37.0,0.,0.));
#1038=IFCCARTESIANPOINT((38.0,0.,0.));
#1039=IFCCARTESIANPOINT((39.0,0.,0.));
#1040=IFCCARTESIANPOINT((40.0,0.,0.));
#1041=IFCCARTESIANPOINT((41.0,0.,0.));
#1042=IFCCARTESIANPOINT((42.0,0.,0.));
#1043=IFCCARTESIANPOINT((43.0,0.,0.));
#1044=IFCCARTESIANPOINT((44.0,0.,0.));
#1045=IFCCARTESIANPOINT((45.0,0.,0.));
#1046=IFCCARTESIANPOINT((46.0,0.,0.));
#1047=IFCCARTESIANPOINT((47.0,0.,0.));
#1048=IFCCARTESIANPOINT((48.0,0.,0.));
#1049=IFCCARTESIANPOINT((49.0,0.,0.));
#1050=IFCCARTESIANPOINT((50.0,0.,0.));
#1051=IFCCARTESIANPOINT((51.0,0.,0.));
#1052=IFCCARTESIANPOINT((52.0,0.,0.));
#1053=IFCCARTESIANPOINT((53.0,0.,0.));
#1054=IFCCARTESIANPOINT((54.0,0.,0.));
#1055=IFCCARTESIANPOINT((55.0,0.,0.));
#1056=IFCCARTESIANPOINT((56.0,0.,0.));
#1057=IFCCARTESIANPOINT((57.0,0.,0.));
#1058=IFCCARTESIANPOINT((58.0,0.,0.));
#1059=IFCCARTESIANPOINT((59.0,0.,0.));
#1060=IFCCARTESIANPOINT((60.0,0.,0.));
#1061=IFCCARTESIANPOINT((61.0,0.,0.));
#1062=IFCCARTESIANPOINT((62.0,0.,0.));
#1063=IFCCARTESIANPOINT((63.0,0.,0.));
#1064=IFCCARTESIANPOINT((64.0,0.,0.));
#1065=IFCCARTESIANPOINT((65.0,0.,0.));
#1066=IFCCARTESIANPOINT((66.0,0.,0.));
#1067=IFCCARTESIANPOINT((67.0,0.,0.));
#1068=IFCCARTESIANPOINT((68.0,0.,0.));
#1069=IFCCARTESIANPOINT((69.0,0.,0.));
#1070=IFCCARTESIANPOINT((70.0,0.,0.));
#1071=IFCCARTESIANPOINT((71.0,0.,0.));
#1072=IFCCARTESIANPOINT((72.0,0.,0.));
#1073=IFCCARTESIANPOINT((73.0,0.,0.));
#1074=IFCCARTESIANPOINT((74.0,0.,0.));
#1075=IFCCARTESIANPOINT((75.0,0.,0.));
#1076=IFCCARTESIANPOINT((76.0,0.,0.));
#1077=IFCCARTESIANPOINT((77.0,0.,0.));
#1078=IFCCARTESIANPOINT((78.0,0.,0.));
#1079=IFCCARTESIANPOINT((79.0,0.,0.));
#1080=IFCCARTESIANPOINT((80.0,0.,0.));
#1081=IFCCARTESIANPOINT((81.0,0.,0.));
#1082=IFCCARTESIANPOINT((82.0,0.,0.));
#1083=IFCCARTESIANPOINT((83.0,0.,0.));
#1084=IFCCARTESIANPOINT((84.0,0.,0.));
#1085=IFCCARTESIANPOINT((85.0,0.,0.));
#1086=IFCCARTESIANPOINT((86.0,0.,0.));
#1087=IFCCARTESIANPOINT((87.0,0.,0.));
#1088=IFCCARTESIANPOINT((88.0,0.,0.));
#1089=IFCCARTESIANPOINT((89.0,0.,0.));
#1090=IFCCARTESIANPOINT((90.0,0.,0.));
#1091=IFCCARTESIANPOINT((91.0,0.,0.));
#1092=IFCCARTESIANPOINT((92.0,0.,0.));
#1093=IFCCARTESIANPOINT((93.0,0.,0.));
#1094=IFCCARTESIANPOINT((94.0,0.,0.));
#1095=IFCCARTESIANPOINT((95.0,0.,0.));
#1096=IFCCARTESIANPOINT((96.0,0.,0.));
#1097=IFCCARTESIANPOINT((97.0,0.,0.));
#1098=IFCCARTESIANPOINT((98.0,0.,0.));
#1099=IFCCARTESIANPOINT((99.0,0.,0.));
#1100=IFCCARTESIANPOINT((100.0,0.,0.));
#1101=IFCCARTESIANPOINT((101.0,0.,0.));
#1102=IFCCARTESIANPOINT((102.0,0.,0.));
#1103=IFCCARTESIANPOINT((103.0,0.,0.));
#1104=IFCCARTESIANPOINT((104.0,0.,0.));
#1105=IFCCARTESIANPOINT((105.0,0.,0.));
#1106=IFCCARTESIANPOINT((106.0,0.,0.));
#1107=IFCCARTESIANPOINT((107.0,0.,0.));
#1108=IFCCARTESIANPOINT((108.0,0.,0.));
#1109=IFCCARTESIANPOINT((109.0,0.,0.));
#1110=IFCCARTESIANPOINT((110.0,0.,0.));
#1111=IFCCARTESIANPOINT((111.0,0.,0.));
#1112=IFCCARTESIANPOINT((112.0,0.,0.));
#1113=IFCCARTESIANPOINT((113.0,0.,0.));
#1114=IFCCARTESIANPOINT((114.0,0.,0.));
#1115=IFCCARTESIANPOINT((115.0,0.,0.));
#1116=IFCCARTESIANPOINT((116.0,0.,0.));
#1117=IFCCARTESIANPOINT((117.0,0.,0.));
#1118=IFCCARTESIANPOINT((118.0,0.,0.));
#1119=IFCCARTESIANPOINT((119.0,0.,0.));
#1120=IFCCARTESIANPOINT((120.0,0.,0.));
#1121=IFCCARTESIANPOINT((121.0,0.,0.));
#1122=IFCCARTESIANPOINT((122.0,0.,0.));
#1123=IFCCARTESIANPOINT((123.0,0.,0.));
#1124=IFCCARTESIANPOINT((124.0,0.,0.));
#1125=IFCCARTESIANPOINT((125.0,0.,0.));
#1126=IFCCARTESIANPOINT((126.0,0.,0.));
#1127=IFCCARTESIANPOINT((127.0,0.,0.));
#1128=IFCCARTESIANPOINT((128.0,0.,0.));
#1129=IFCCARTESIANPOINT((129.0,0.,0.));
#1130=IFCCARTESIANPOINT((130.0,0.,0.));
#1131=IFCCARTESIANPOINT((131.0,0.,0.));
#1132=IFCCARTESIANPOINT((132.0,0.,0.));
#1133=IFCCARTESIANPOINT((133.0,0.,0.));
#1134=IFCCARTESIANPOINT((134.0,0.,0.));
#1135=IFCCARTESIANPOINT((135.0,0.,0.));
#1136=IFCCARTESIANPOINT((136.0,0.,0.));
#1137=IFCCARTESIANPOINT((137.0,0.,0.));
#1138=IFCCARTESIANPOINT((138.0,0.,0.));
#1139=IFCCARTESIANPOINT((139.0,0.,0.));
#1140=IFCCARTESIANPOINT((140.0,0.,0.));
#1141=IFCCARTESIANPOINT((141.0,0.,0.));
#1142=IFCCARTESIANPOINT((142.0,0.,0.));
#1143=IFCCARTESIANPOINT((143.0,0.,0.));
#1144=IFCCARTESIANPOINT((144.0,0.,0.));
#1145=IFCCARTESIANPOINT((145.0,0.,0.));
#1146=IFCCARTESIANPOINT((146.0,0.,0.));
#1147=IFCCARTESIANPOINT((147.0,0.,0.));
#1148=IFCCARTESIANPOINT((148.0,0.,0.));
#1149=IFCCARTESIANPOINT((149.0,0.,0.));
#1150=IFCCARTESIANPOINT((150.0,0.,0.));
#1151=IFCCARTESIANPOINT((151.0,0.,0.));
#1152=IFCCARTESIANPOINT((152.0,0.,0.));
#1153=IFCCARTESIANPOINT((153.0,0.,0.));
#1154=IFCCARTESIANPOINT((154.0,0.,0.));
#1155=IFCCARTESIANPOINT((155.0,0.,0.));
#1156=IFCCARTESIANPOINT((156.0,0.,0.));
#1157=IFCCARTESIANPOINT((157.0,0.,0.));
#1158=IFCCARTESIANPOINT((158.0,0.,0.));
#1159=IFCCARTESIANPOINT((159.0,0.,0.));
#1160=IFCCARTESIANPOINT((160.0,0.,0.));
#1161=IFCCARTESIANPOINT((161.0,0.,0.));
#1162=IFCCARTESIANPOINT((162.0,0.,0.));
#1163=IFCCARTESIANPOINT((163.0,0.,0.));
#1164=IFCCARTESIANPOINT((164.0,0.,0.));
#1165=IFCCARTESIANPOINT((165.0,0.,0.));
#1166=IFCCARTESIANPOINT((166.0,0.,0.));
#1167=IFCCARTESIANPOINT((167.0,0.,0.));
#1168=IFCCARTESIANPOINT((168.0,0.,0.));
#1169=IFCCARTESIANPOINT((169.0,0.,0.));
#1170=IFCCARTESIANPOINT((170.0,0.,0.));
#1171=IFCCARTESIANPOINT((171.0,0.,0.));
#1172=IFCCARTESIANPOINT((172.0,0.,0.));
#1173=IFCCARTESIANPOINT((173.0,0.,0.));
#1174=IFCCARTESIANPOINT((174.0,0.,0.));
#1175=IFCCARTESIANPOINT((175.0,0.,0.));
#1176=IFCCARTESIANPOINT((176.0,0.,0.));
#1177=IFCCARTESIANPOINT((177.0,0.,0.));
#1178=IFCCARTESIANPOINT((178.0,0.,0.));
#1179=IFCCARTESIANPOINT((179.0,0.,0.));
#1180=IFCCARTESIANPOINT((180.0,0.,0.));
#1181=IFCCARTESIANPOINT((181.0,0.,0.));
#1182=IFCCARTESIANPOINT((182.0,0.,0.));
#1183=IFCCARTESIANPOINT((183.0,0.,0.));
#1184=IFCCARTESIANPOINT((184.0,0.,0.));
#1185=IFCCARTESIANPOINT((185.0,0.,0.));
#1186=IFCCARTESIANPOINT((186.0,0.,0.));
#1187=IFCCARTESIANPOINT((187.0,0.,0.));
#1188=IFCCARTESIANPOINT((188.0,0.,0.));
#1189=IFCCARTESIANPOINT((189.0,0.,0.));
#1190=IFCCARTESIANPOINT((190.0,0.,0.));
#1191=IFCCARTESIANPOINT((191.0,0.,0.));
#1192=IFCCARTESIANPOINT((192.0,0.,0.));
#1193=IFCCARTESIANPOINT((193.0,0.,0.));
#1194=IFCCARTESIANPOINT((194.0,0.,0.));
#1195=IFCCARTESIANPOINT((195.0,0.,0.));
#1196=IFCCARTESIANPOINT((196.0,0.,0.));
#1197=IFCCARTESIANPOINT((197.0,0.,0.));
#1198=IFCCARTESIANPOINT((198.0,0.,0.));
#1199=IFCCARTESIANPOINT((199.0,0.,0.));
#1200=IFCCARTESIANPOINT((200.0,0.,0.));
#1201=IFCCARTESIANPOINT((201.0,0.,0.));
#1202=IFCCARTESIANPOINT((202.0,0.,0.));
#1203=IFCCARTESIANPOINT((203.0,0.,0.));
#1204=IFCCARTESIANPOINT((204.0,0.,0.));
#1205=IFCCARTESIANPOINT((205.0,0.,0.));
#1206=IFCCARTESIANPOINT((206.0,0.,0.));
#1207=IFCCARTESIANPOINT((207.0,0.,0.));
#1208=IFCCARTESIANPOINT((208.0,0.,0.));
#1209=IFCCARTESIANPOINT((209.0,0.,0.));
#1210=IFCCARTESIANPOINT((210.0,0.,0.));
#1211=IFCCARTESIANPOINT((211.0,0.,0.));
#1212=IFCCARTESIANPOINT((212.0,0.,0.));
#1213=IFCCARTESIANPOINT((213.0,0.,0.));
#1214=IFCCARTESIANPOINT((214.0,0.,0.));
#1215=IFCCARTESIANPOINT((215.0,0.,0.));
#1216=IFCCARTESIANPOINT((216.0,0.,0.));
#1217=IFCCARTESIANPOINT((217.0,0.,0.));
#1218=IFCCARTESIANPOINT((218.0,0.,0.));
#1219=IFCCARTESIANPOINT((219.0,0.,0.));
#1220=IFCCARTESIANPOINT((220.0,0.,0.));
#1221=IFCCARTESIANPOINT((221.0,0.,0.));
#1222=IFCCARTESIANPOINT((222.0,0.,0.));
#1223=IFCCARTESIANPOINT((223.0,0.,0.));
#1224=IFCCARTESIANPOINT((224.0,0.,0.));
#1225=IFCCARTESIANPOINT((225.0,0.,0.));
#1226=IFCCARTESIANPOINT((226.0,0.,0.));
#1227=IFCCARTESIANPOINT((227.0,0.,0.));
#1228=IFCCARTESIANPOINT((228.0,0.,0.));
#1229=IFCCARTESIANPOINT((229.0,0.,0.));
#1230=IFCCARTESIANPOINT((230.0,0.,0.));
#1231=IFCCARTESIANPOINT((231.0,0.,0.));
#1232=IFCCARTESIANPOINT((232.0,0.,0.));
#1233=IFCCARTESIANPOINT((233.0,0.,0.));
#1234=IFCCARTESIANPOINT((234.0,0.,0.));
#1235=IFCCARTESIANPOINT((235.0,0.,0.));
#1236=IFCCARTESIANPOINT((236.0,0.,0.));
#1237=IFCCARTESIANPOINT((237.0,0.,0.));
#1238=IFCCARTESIANPOINT((238.0,0.,0.));
#1239=IFCCARTESIANPOINT((239.0,0.,0.));
#1240=IFCCARTESIANPOINT((240.0,0.,0.));
#1241=IFCCARTESIANPOINT((241.0,0.,0.));
#1242=IFCCARTESIANPOINT((242.0,0.,0.));
#1243=IFCCARTESIANPOINT((243.0,0.,0.));
#1244=IFCCARTESIANPOINT((244.0,0.,0.));
#1245=IFCCARTESIANPOINT((245.0,0.,0.));
#1246=IFCCARTESIANPOINT((246.0,0.,0.));
#1247=IFCCARTESIANPOINT((247.0,0.,0.));
#1248=IFCCARTESIANPOINT((248.0,0.,0.));
#1249=IFCCARTESIANPOINT((249.0,0.,0.));
#1250=IFCCARTESIANPOINT((250.0,0.,0.));
#1251=IFCCARTESIANPOINT((251.0,0.,0.));
#1252=IFCCARTESIANPOINT((252.0,0.,0.));
#1253=IFCCARTESIANPOINT((253.0,0.,0.));
#1254=IFCCARTESIANPOINT((254.0,0.,0.));
#1255=IFCCARTESIANPOINT((255.0,0.,0.));
#1256=IFCCARTESIANPOINT((256.0,0.,0.));
#1257=IFCCARTESIANPOINT((257.0,0.,0.));
#1258=IFCCARTESIANPOINT((258.0,0.,0.));
#1259=IFCCARTESIANPOINT((259.0,0.,0.));
#1260=IFCCARTESIANPOINT((260.0,0.,0.));
#1261=IFCCARTESIANPOINT((261.0,0.,0.));
#1262=IFCCARTESIANPOINT((262.0,0.,0.));
#1263=IFCCARTESIANPOINT((263.0,0.,0.));
#1264=IFCCARTESIANPOINT((264.0,0.,0.));
#1265=IFCCARTESIANPOINT((265.0,0.,0.));
#1266=IFCCARTESIANPOINT((266.0,0.,0.));
#1267=IFCCARTESIANPOINT((267.0,0.,0.));
#1268=IFCCARTESIANPOINT((268.0,0.,0.));
#1269=IFCCARTESIANPOINT((269.0,0.,0.));
#1270=IFCCARTESIANPOINT((270.0,0.,0.));
#1271=IFCCARTESIANPOINT((271.0,0.,0.));
#1272=IFCCARTESIANPOINT((272.0,0.,0.));
#1273=IFCCARTESIANPOINT((273.0,0.,0.));
#1274=IFCCARTESIANPOINT((274.0,0.,0.));
#1275=IFCCARTESIANPOINT((275.0,0.,0.));
#1276=IFCCARTESIANPOINT((276.0,0.,0.));
#1277=IFCCARTESIANPOINT((277.0,0.,0.));
#1278=IFCCARTESIANPOINT((278.0,0.,0.));
#1279=IFCCARTESIANPOINT((279.0,0.,0.));
#1280=IFCCARTESIANPOINT((280.0,0.,0.));
#1281=IFCCARTESIANPOINT((281.0,0.,0.));
#1282=IFCCARTESIANPOINT((282.0,0.,0.));
#1283=IFCCARTESIANPOINT((283.0,0.,0.));
#1284=IFCCARTESIANPOINT((284.0,0.,0.));
#1285=IFCCARTESIANPOINT((285.0,0.,0.));
#1286=IFCCARTESIANPOINT((286.0,0.,0.));
#1287=IFCCARTESIANPOINT((287.0,0.,0.));
#1288=IFCCARTESIANPOINT((288.0,0.,0.));
#1289=IFCCARTESIANPOINT((289.0,0.,0.));
#1290=IFCCARTESIANPOINT((290.0,0.,0.));
#1291=IFCCARTESIANPOINT((291.0,0.,0.));
#1292=IFCCARTESIANPOINT((292.0,0.,0.));
#1293=IFCCARTESIANPOINT((293.0,0.,0.));
#1294=IFCCARTESIANPOINT((294.0,0.,0.));
#1295=IFCCARTESIANPOINT((295.0,0.,0.));
#1296=IFCCARTESIANPOINT((296.0,0.,0.));
#1297=IFCCARTESIANPOINT((297.0,0.,0.));
#1298=IFCCARTESIANPOINT((298.0,0.,0.));
#1299=IFCCARTESIANPOINT((299.0,0.,0.));
#1300=IFCCARTESIANPOINT((300.0,0.,0.));
#1301=IFCCARTESIANPOINT((301.0,0.,0.));
#1302=IFCCARTESIANPOINT((302.0,0.,0.));
#1303=IFCCARTESIANPOINT((303.0,0.,0.));
#1304=IFCCARTESIANPOINT((304.0,0.,0.));
#1305=IFCCARTESIANPOINT((305.0,0.,0.));
#1306=IFCCARTESIANPOINT((306.0,0.,0.));
#1307=IFCCARTESIANPOINT((307.0,0.,0.));
#1308=IFCCARTESIANPOINT((308.0,0.,0.));
#1309=IFCCARTESIANPOINT((309.0,0.,0.));
#1310=IFCCARTESIANPOINT((310.0,0.,0.));
#1311=IFCCARTESIANPOINT((311.0,0.,0.));
#1312=IFCCARTESIANPOINT((312.0,0.,0.));
#1313=IFCCARTESIANPOINT((313.0,0.,0.));
#1314=IFCCARTESIANPOINT((314.0,0.,0.));
#1315=IFCCARTESIANPOINT((315.0,0.,0.));
#1316=IFCCARTESIANPOINT((316.0,0.,0.));
#1317=IFCCARTESIANPOINT((317.0,0.,0.));
#1318=IFCCARTESIANPOINT((318.0,0.,0.));
#1319=IFCCARTESIANPOINT((319.0,0.,0.));
#1320=IFCCARTESIANPOINT((320.0,0.,0.));
#1321=IFCCARTESIANPOINT((321.0,0.,0.));
#1322=IFCCARTESIANPOINT((322.0,0.,0.));
#1323=IFCCARTESIANPOINT((323.0,0.,0.));
#1324=IFCCARTESIANPOINT((324.0,0.,0.));
#1325=IFCCARTESIANPOINT((325.0,0.,0.));
#1326=IFCCARTESIANPOINT((326.0,0.,0.));
#1327=IFCCARTESIANPOINT((327.0,0.,0.));
#1328=IFCCARTESIANPOINT((328.0,0.,0.));
#1329=IFCCARTESIANPOINT((329.0,0.,0.));
#1330=IFCCARTESIANPOINT((330.0,0.,0.));
#1331=IFCCARTESIANPOINT((331.0,0.,0.));
#1332=IFCCARTESIANPOINT((332.0,0.,0.));
#1333=IFCCARTESIANPOINT((333.0,0.,0.));
#1334=IFCCARTESIANPOINT((334.0,0.,0.));
#1335=IFCCARTESIANPOINT((335.0,0.,0.));
#1336=IFCCARTESIANPOINT((336.0,0.,0.));
#1337=IFCCARTESIANPOINT((337.0,0.,0.));
#1338=IFCCARTESIANPOINT((338.0,0.,0.));
#1339=IFCCARTESIANPOINT((339.0,0.,0.));
#1340=IFCCARTESIANPOINT((340.0,0.,0.));
#1341=IFCCARTESIANPOINT((341.0,0.,0.));
#1342=IFCCARTESIANPOINT((342.0,0.,0.));
#1343=IFCCARTESIANPOINT((343.0,0.,0.));
#1344=IFCCARTESIANPOINT((344.0,0.,0.));
#1345=IFCCARTESIANPOINT((345.0,0.,0.));
#1346=IFCCARTESIANPOINT((346.0,0.,0.));
#1347=IFCCARTESIANPOINT((347.0,0.,0.));
#1348=IFCCARTESIANPOINT((348.0,0.,0.));
#1349=IFCCARTESIANPOINT((349.0,0.,0.));
#1350=IFCCARTESIANPOINT((350.0,0.,0.));
#1351=IFCCARTESIANPOINT((351.0,0.,0.));
#1352=IFCCARTESIANPOINT((352.0,0.,0.));
#1353=IFCCARTESIANPOINT((353.0,0.,0.));
#1354=IFCCARTESIANPOINT((354.0,0.,0.));
#1355=IFCCARTESIANPOINT((355.0,0.,0.));
#1356=IFCCARTESIANPOINT((356.0,0.,0.));
#1357=IFCCARTESIANPOINT((357.0,0.,0.));
#1358=IFCCARTESIANPOINT((358.0,0.,0.));
#1359=IFCCARTESIANPOINT((359.0,0.,0.));
#1360=IFCCARTESIANPOINT((360.0,0.,0.));
#1361=IFCCARTESIANPOINT((361.0,0.,0.));
#1362=IFCCARTESIANPOINT((362.0,0.,0.));
#1363=IFCCARTESIANPOINT((363.0,0.,0.));
#1364=IFCCARTESIANPOINT((364.0,0.,0.));
#1365=IFCCARTESIANPOINT((365.0,0.,0.));
#1366=IFCCARTESIANPOINT((366.0,0.,0.));
#1367=IFCCARTESIANPOINT((367.0,0.,0.));
#1368=IFCCARTESIANPOINT((368.0,0.,0.));
#1369=IFCCARTESIANPOINT((369.0,0.,0.));
#1370=IFCCARTESIANPOINT((370.0,0.,0.));
#1371=IFCCARTESIANPOINT((371.0,0.,0.));
#1372=IFCCARTESIANPOINT((372.0,0.,0.));
#1373=IFCCARTESIANPOINT((373.0,0.,0.));
#1374=IFCCARTESIANPOINT((374.0,0.,0.));
#1375=IFCCARTESIANPOINT((375.0,0.,0.));
#1376=IFCCARTESIANPOINT((376.0,0.,0.));
#1377=IFCCARTESIANPOINT((377.0,0.,0.));
#1378=IFCCARTESIANPOINT((378.0,0.,0.));
#1379=IFCCARTESIANPOINT((379.0,0.,0.));
#1380=IFCCARTESIANPOINT((380.0,0.,0.));
#1381=IFCCARTESIANPOINT((381.0,0.,0.));
#1382=IFCCARTESIANPOINT((382.0,0.,0.));
#1383=IFCCARTESIANPOINT((383.0,0.,0.));
#1384=IFCCARTESIANPOINT((384.0,0.,0.));
#1385=IFCCARTESIANPOINT((385.0,0.,0.));
#1386=IFCCARTESIANPOINT((386.0,0.,0.));
#1387=IFCCARTESIANPOINT((387.0,0.,0.));
#1388=IFCCARTESIANPOINT((388.0,0.,0.));
#1389=IFCCARTESIANPOINT((389.0,0.,0.));
#1390=IFCCARTESIANPOINT((390.0,0.,0.));
#1391=IFCCARTESIANPOINT((391.0,0.,0.));
#1392=IFCCARTESIANPOINT((392.0,0.,0.));
#1393=IFCCARTESIANPOINT((393.0,0.,0.));
#1394=IFCCARTESIANPOINT((394.0,0.,0.));
#1395=IFCCARTESIANPOINT((395.0,0.,0.));
#1396=IFCCARTESIANPOINT((396.0,0.,0.));
#1397=IFCCARTESIANPOINT((397.0,0.,0.));
#1398=IFCCARTESIANPOINT((398.0,0.,0.));
#1399=IFCCARTESIANPOINT((399.0,0.,0.));
#1400=IFCCARTESIANPOINT((400.0,0.,0.));
#1401=IFCCARTESIANPOINT((401.0,0.,0.));
#1402=IFCCARTESIANPOINT((402.0,0.,0.));
#1403=IFCCARTESIANPOINT((403.0,0.,0.));
#1404=IFCCARTESIANPOINT((404.0,0.,0.));
#1405=IFCCARTESIANPOINT((405.0,0.,0.));
#1406=IFCCARTESIANPOINT((406.0,0.,0.));
#1407=IFCCARTESIANPOINT((407.0,0.,0.));
#1408=IFCCARTESIANPOINT((408.0,0.,0.));
#1409=IFCCARTESIANPOINT((409.0,0.,0.));
#1410=IFCCARTESIANPOINT((410.0,0.,0.));
#1411=IFCCARTESIANPOINT((411.0,0.,0.));
#1412=IFCCARTESIANPOINT((412.0,0.,0.));
#1413=IFCCARTESIANPOINT((413.0,0.,0.));
#1414=IFCCARTESIANPOINT((414.0,0.,0.));
#1415=IFCCARTESIANPOINT((415.0,0.,0.));
#1416=IFCCARTESIANPOINT((416.0,0.,0.));
#1417=IFCCARTESIANPOINT((417.0,0.,0.));
#1418=IFCCARTESIANPOINT((418.0,0.,0.));
#1419=IFCCARTESIANPOINT((419.0,0.,0.));
#1420=IFCCARTESIANPOINT((420.0,0.,0.));
#1421=IFCCARTESIANPOINT((421.0,0.,0.));
#1422=IFCCARTESIANPOINT((422.0,0.,0.));
#1423=IFCCARTESIANPOINT((423.0,0.,0.));
#1424=IFCCARTESIANPOINT((424.0,0.,0.));
#1425=IFCCARTESIANPOINT((425.0,0.,0.));
#1426=IFCCARTESIANPOINT((426.0,0.,0.));
#1427=IFCCARTESIANPOINT((427.0,0.,0.));
#1428=IFCCARTESIANPOINT((428.0,0.,0.));
#1429=IFCCARTESIANPOINT((429.0,0.,0.));
#1430=IFCCARTESIANPOINT((430.0,0.,0.));
#1431=IFCCARTESIANPOINT((431.0,0.,0.));
#1432=IFCCARTESIANPOINT((432.0,0.,0.));
#1433=IFCCARTESIANPOINT((433.0,0.,0.));
#1434=IFCCARTESIANPOINT((434.0,0.,0.));
#1435=IFCCARTESIANPOINT((435.0,0.,0.));
#1436=IFCCARTESIANPOINT((436.0,0.,0.));
#1437=IFCCARTESIANPOINT((437.0,0.,0.));
#1438=IFCCARTESIANPOINT((438.0,0.,0.));
#1439=IFCCARTESIANPOINT((439.0,0.,0.));
#1440=IFCCARTESIANPOINT((440.0,0.,0.));
#1441=IFCCARTESIANPOINT((441.0,0.,0.));
#1442=IFCCARTESIANPOINT((442.0,0.,0.));
#1443=IFCCARTESIANPOINT((443.0,0.,0.));
#1444=IFCCARTESIANPOINT((444.0,0.,0.));
#1445=IFCCARTESIANPOINT((445.0,0.,0.));
#1446=IFCCARTESIANPOINT((446.0,0.,0.));
#1447=IFCCARTESIANPOINT((447.0,0.,0.));
#1448=IFCCARTESIANPOINT((448.0,0.,0.));
#1449=IFCCARTESIANPOINT((449.0,0.,0.));
#1450=IFCCARTESIANPOINT((450.0,0.,0.));
#1451=IFCCARTESIANPOINT((451.0,0.,0.));
#1452=IFCCARTESIANPOINT((452.0,0.,0.));
#1453=IFCCARTESIANPOINT((453.0,0.,0.));
#1454=IFCCARTESIANPOINT((454.0,0.,0.));
#1455=IFCCARTESIANPOINT((455.0,0.,0.));
#1456=IFCCARTESIANPOINT((456.0,0.,0.));
#1457=IFCCARTESIANPOINT((457.0,0.,0.));
#1458=IFCCARTESIANPOINT((458.0,0.,0.));
#1459=IFCCARTESIANPOINT((459.0,0.,0.));
#1460=IFCCARTESIANPOINT((460.0,0.,0.));
#1461=IFCCARTESIANPOINT((461.0,0.,0.));
#1462=IFCCARTESIANPOINT((462.0,0.,0.));
#1463=IFCCARTESIANPOINT((463.0,0.,0.));
#1464=IFCCARTESIANPOINT((464.0,0.,0.));
#1465=IFCCARTESIANPOINT((465.0,0.,0.));
#1466=IFCCARTESIANPOINT((466.0,0.,0.));
#1467=IFCCARTESIANPOINT((467.0,0.,0.));
#1468=IFCCARTESIANPOINT((468.0,0.,0.));
#1469=IFCCARTESIANPOINT((469.0,0.,0.));
#1470=IFCCARTESIANPOINT((470.0,0.,0.));
#1471=IFCCARTESIANPOINT((471.0,0.,0.));
#1472=IFCCARTESIANPOINT((472.0,0.,0.));
#1473=IFCCARTESIANPOINT((473.0,0.,0.));
#1474=IFCCARTESIANPOINT((474.0,0.,0.));
#1475=IFCCARTESIANPOINT((475.0,0.,0.));
#1476=IFCCARTESIANPOINT((476.0,0.,0.));
#1477=IFCCARTESIANPOINT((477.0,0.,0.));
#1478=IFCCARTESIANPOINT((478.0,0.,0.));
#1479=IFCCARTESIANPOINT((479.0,0.,0.));
#1480=IFCCARTESIANPOINT((480.0,0.,0.));
#1481=IFCCARTESIANPOINT((481.0,0.,0.));
#1482=IFCCARTESIANPOINT((482.0,0.,0.));
#1483=IFCCARTESIANPOINT((483.0,0.,0.));
#1484=IFCCARTESIANPOINT((484.0,0.,0.));
#1485=IFCCARTESIANPOINT((485.0,0.,0.));
#1486=IFCCARTESIANPOINT((486.0,0.,0.));
#1487=IFCCARTESIANPOINT((487.0,0.,0.));
#1488=IFCCARTESIANPOINT((488.0,0.,0.));
#1489=IFCCARTESIANPOINT((489.0,0.,0.));
#1490=IFCCARTESIANPOINT((490.0,0.,0.));
#1491=IFCCARTESIANPOINT((491.0,0.,0.));
#1492=IFCCARTESIANPOINT((492.0,0.,0.));
#1493=IFCCARTESIANPOINT((493.0,0.,0.));
#1494=IFCCARTESIANPOINT((494.0,0.,0.));
#1495=IFCCARTESIANPOINT((495.0,0.,0.));
#1496=IFCCARTESIANPOINT((496.0,0.,0.));
#1497=IFCCARTESIANPOINT((497.0,0.,0.));
#1498=IFCCARTESIANPOINT((498.0,0.,0.));
#1499=IFCCARTESIANPOINT((499.0,0.,0.));
#1500=IFCCARTESIANPOINT((500.0,0.,0.));
#1501=IFCCARTESIANPOINT((501.0,0.,0.));
#1502=IFCCARTESIANPOINT((502.0,0.,0.));
#1503=IFCCARTESIANPOINT((503.0,0.,0.));
#1504=IFCCARTESIANPOINT((504.0,0.,0.));
#1505=IFCCARTESIANPOINT((505.0,0.,0.));
#1506=IFCCARTESIANPOINT((506.0,0.,0.));
#1507=IFCCARTESIANPOINT((507.0,0.,0.));
#1508=IFCCARTESIANPOINT((508.0,0.,0.));
#1509=IFCCARTESIANPOINT((509.0,0.,0.));
#1510=IFCCARTESIANPOINT((510.0,0.,0.));
#1511=IFCCARTESIANPOINT((511.0,0.,0.));
#1512=IFCCARTESIANPOINT((512.0,0.,0.));
#1513=IFCCARTESIANPOINT((513.0,0.,0.));
#1514=IFCCARTESIANPOINT((514.0,0.,0.));
#1515=IFCCARTESIANPOINT((515.0,0.,0.));
#1516=IFCCARTESIANPOINT((516.0,0.,0.));
#1517=IFCCARTESIANPOINT((517.0,0.,0.));
#1518=IFCCARTESIANPOINT((518.0,0.,0.));
#1519=IFCCARTESIANPOINT((519.0,0.,0.));
#1520=IFCCARTESIANPOINT((520.0,0.,0.));
#1521=IFCCARTESIANPOINT((521.0,0.,0.));
#1522=IFCCARTESIANPOINT((522.0,0.,0.));
#1523=IFCCARTESIANPOINT((523.0,0.,0.));
#1524=IFCCARTESIANPOINT((524.0,0.,0.));
#1525=IFCCARTESIANPOINT((525.0,0.,0.));
#1526=IFCCARTESIANPOINT((526.0,0.,0.));
#1527=IFCCARTESIANPOINT((527.0,0.,0.));
#1528=IFCCARTESIANPOINT((528.0,0.,0.));
#1529=IFCCARTESIANPOINT((529.0,0.,0.));
#1530=IFCCARTESIANPOINT((530.0,0.,0.));
#1531=IFCCARTESIANPOINT((531.0,0.,0.));
#1532=IFCCARTESIANPOINT((532.0,0.,0.));
#1533=IFCCARTESIANPOINT((533.0,0.,0.));
#1534=IFCCARTESIANPOINT((534.0,0.,0.));
#1535=IFCCARTESIANPOINT((535.0,0.,0.));
#1536=IFCCARTESIANPOINT((536.0,0.,0.));
#1537=IFCCARTESIANPOINT((537.0,0.,0.));
#1538=IFCCARTESIANPOINT((538.0,0.,0.));
#1539=IFCCARTESIANPOINT((539.0,0.,0.));
#1540=IFCCARTESIANPOINT((540.0,0.,0.));
#1541=IFCCARTESIANPOINT((541.0,0.,0.));
#1542=IFCCARTESIANPOINT((542.0,0.,0.));
#1543=IFCCARTESIANPOINT((543.0,0.,0.));
#1544=IFCCARTESIANPOINT((544.0,0.,0.));
#1545=IFCCARTESIANPOINT((545.0,0.,0.));
#1546=IFCCARTESIANPOINT((546.0,0.,0.));
#1547=IFCCARTESIANPOINT((547.0,0.,0.));
#1548=IFCCARTESIANPOINT((548.0,0.,0.));
#1549=IFCCARTESIANPOINT((549.0,0.,0.));
#1550=IFCCARTESIANPOINT((550.0,0.,0.));
#1551=IFCCARTESIANPOINT((551.0,0.,0.));
#1552=IFCCARTESIANPOINT((552.0,0.,0.));
#1553=IFCCARTESIANPOINT((553.0,0.,0.));
#1554=IFCCARTESIANPOINT((554.0,0.,0.));
#1555=IFCCARTESIANPOINT((555.0,0.,0.));
#1556=IFCCARTESIANPOINT((556.0,0.,0.));
#1557=IFCCARTESIANPOINT((557.0,0.,0.));
#1558=IFCCARTESIANPOINT((558.0,0.,0.));
#1559=IFCCARTESIANPOINT((559.0,0.,0.));
#1560=IFCCARTESIANPOINT((560.0,0.,0.));
#1561=IFCCARTESIANPOINT((561.0,0.,0.));
#1562=IFCCARTESIANPOINT((562.0,0.,0.));
#1563=IFCCARTESIANPOINT((563.0,0.,0.));
#1564=IFCCARTESIANPOINT((564.0,0.,0.));
#1565=IFCCARTESIANPOINT((565.0,0.,0.));
#1566=IFCCARTESIANPOINT((566.0,0.,0.));
#1567=IFCCARTESIANPOINT((567.0,0.,0.));
#1568=IFCCARTESIANPOINT((568.0,0.,0.));
#1569=IFCCARTESIANPOINT((569.0,0.,0.));
#1570=IFCCARTESIANPOINT((570.0,0.,0.));
#1571=IFCCARTESIANPOINT((571.0,0.,0.));
#1572=IFCCARTESIANPOINT((572.0,0.,0.));
#1573=IFCCARTESIANPOINT((573.0,0.,0.));
#1574=IFCCARTESIANPOINT((574.0,0.,0.));
#1575=IFCCARTESIANPOINT((575.0,0.,0.));
#1576=IFCCARTESIANPOINT((576.0,0.,0.));
#1577=IFCCARTESIANPOINT((577.0,0.,0.));
#1578=IFCCARTESIANPOINT((578.0,0.,0.));
#1579=IFCCARTESIANPOINT((579.0,0.,0.));
#1580=IFCCARTESIANPOINT((580.0,0.,0.));
#1581=IFCCARTESIANPOINT((581.0,0.,0.));
#1582=IFCCARTESIANPOINT((582.0,0.,0.));
#1583=IFCCARTESIANPOINT((583.0,0.,0.));
#1584=IFCCARTESIANPOINT((584.0,0.,0.));
#1585=IFCCARTESIANPOINT((585.0,0.,0.));
#1586=IFCCARTESIANPOINT((586.0,0.,0.));
#1587=IFCCARTESIANPOINT((587.0,0.,0.));
#1588=IFCCARTESIANPOINT((588.0,0.,0.));
#1589=IFCCARTESIANPOINT((589.0,0.,0.));
#1590=IFCCARTESIANPOINT((590.0,0.,0.));
#1591=IFCCARTESIANPOINT((591.0,0.,0.));
#1592=IFCCARTESIANPOINT((592.0,0.,0.));
#1593=IFCCARTESIANPOINT((593.0,0.,0.));
#1594=IFCCARTESIANPOINT((594.0,0.,0.));
#1595=IFCCARTESIANPOINT((595.0,0.,0.));
#1596=IFCCARTESIANPOINT((596.0,0.,0.));
#1597=IFCCARTESIANPOINT((597.0,0.,0.));
#1598=IFCCARTESIANPOINT((598.0,0.,0.));
#1599=IFCCARTESIANPOINT((599.0,0.,0.));
#1600=IFCCARTESIANPOINT((600.0,0.,0.));
#1601=IFCCARTESIANPOINT((601.0,0.,0.));
#1602=IFCCARTESIANPOINT((602.0,0.,0.));
#1603=IFCCARTESIANPOINT((603.0,0.,0.));
#1604=IFCCARTESIANPOINT((604.0,0.,0.));
#1605=IFCCARTESIANPOINT((605.0,0.,0.));
#1606=IFCCARTESIANPOINT((606.0,0.,0.));
#1607=IFCCARTESIANPOINT((607.0,0.,0.));
#1608=IFCCARTESIANPOINT((608.0,0.,0.));
#1609=IFCCARTESIANPOINT((609.0,0.,0.));
#1610=IFCCARTESIANPOINT((610.0,0.,0.));
#1611=IFCCARTESIANPOINT((611.0,0.,0.));
#1612=IFCCARTESIANPOINT((612.0,0.,0.));
#1613=IFCCARTESIANPOINT((613.0,0.,0.));
#1614=IFCCARTESIANPOINT((614.0,0.,0.));
#1615=IFCCARTESIANPOINT((615.0,0.,0.));
#1616=IFCCARTESIANPOINT((616.0,0.,0.));
#1617=IFCCARTESIANPOINT((617.0,0.,0.));
#1618=IFCCARTESIANPOINT((618.0,0.,0.));
#1619=IFCCARTESIANPOINT((619.0,0.,0.));
#1620=IFCCARTESIANPOINT((620.0,0.,0.));
#1621=IFCCARTESIANPOINT((621.0,0.,0.));
#1622=IFCCARTESIANPOINT((622.0,0.,0.));
#1623=IFCCARTESIANPOINT((623.0,0.,0.));
#1624=IFCCARTESIANPOINT((624.0,0.,0.));
#1625=IFCCARTESIANPOINT((625.0,0.,0.));
#1626=IFCCARTESIANPOINT((626.0,0.,0.));
#1627=IFCCARTESIANPOINT((627.0,0.,0.));
#1628=IFCCARTESIANPOINT((628.0,0.,0.));
#1629=IFCCARTESIANPOINT((629.0,0.,0.));
#1630=IFCCARTESIANPOINT((630.0,0.,0.));
#1631=IFCCARTESIANPOINT((631.0,0.,0.));
#1632=IFCCARTESIANPOINT((632.0,0.,0.));
#1633=IFCCARTESIANPOINT((633.0,0.,0.));
#1634=IFCCARTESIANPOINT((634.0,0.,0.));
#1635=IFCCARTESIANPOINT((635.0,0.,0.));
#1636=IFCCARTESIANPOINT((636.0,0.,0.));
#1637=IFCCARTESIANPOINT((637.0,0.,0.));
#1638=IFCCARTESIANPOINT((638.0,0.,0.));
#1639=IFCCARTESIANPOINT((639.0,0.,0.));
#1640=IFCCARTESIANPOINT((640.0,0.,0.));
#1641=IFCCARTESIANPOINT((641.0,0.,0.));
#1642=IFCCARTESIANPOINT((642.0,0.,0.));
#1643=IFCCARTESIANPOINT((643.0,0.,0.));
#1644=IFCCARTESIANPOINT((644.0,0.,0.));
#1645=IFCCARTESIANPOINT((645.0,0.,0.));
#1646=IFCCARTESIANPOINT((646.0,0.,0.));
#1647=IFCCARTESIANPOINT((647.0,0.,0.));
#1648=IFCCARTESIANPOINT((648.0,0.,0.));
#1649=IFCCARTESIANPOINT((649.0,0.,0.));
#1650=IFCCARTESIANPOINT((650.0,0.,0.));
#1651=IFCCARTESIANPOINT((651.0,0.,0.));
#1652=IFCCARTESIANPOINT((652.0,0.,0.));
#1653=IFCCARTESIANPOINT((653.0,0.,0.));
#1654=IFCCARTESIANPOINT((654.0,0.,0.));
#1655=IFCCARTESIANPOINT((655.0,0.,0.));
#1656=IFCCARTESIANPOINT((656.0,0.,0.));
#1657=IFCCARTESIANPOINT((657.0,0.,0.));
#1658=IFCCARTESIANPOINT((658.0,0.,0.));
#1659=IFCCARTESIANPOINT((659.0,0.,0.));
#1660=IFCCARTESIANPOINT((660.0,0.,0.));
#1661=IFCCARTESIANPOINT((661.0,0.,0.));
#1662=IFCCARTESIANPOINT((662.0,0.,0.));
#1663=IFCCARTESIANPOINT((663.0,0.,0.));
#1664=IFCCARTESIANPOINT((664.0,0.,0.));
#1665=IFCCARTESIANPOINT((665.0,0.,0.));
#1666=IFCCARTESIANPOINT((666.0,0.,0.));
#1667=IFCCARTESIANPOINT((667.0,0.,0.));
#1668=IFCCARTESIANPOINT((668.0,0.,0.));
#1669=IFCCARTESIANPOINT((669.0,0.,0.));
#1670=IFCCARTESIANPOINT((670.0,0.,0.));
#1671=IFCCARTESIANPOINT((671.0,0.,0.));
#1672=IFCCARTESIANPOINT((672.0,0.,0.));
#1673=IFCCARTESIANPOINT((673.0,0.,0.));
#1674=IFCCARTESIANPOINT((674.0,0.,0.));
#1675=IFCCARTESIANPOINT((675.0,0.,0.));
#1676=IFCCARTESIANPOINT((676.0,0.,0.));
#1677=IFCCARTESIANPOINT((677.0,0.,0.));
#1678=IFCCARTESIANPOINT((678.0,0.,0.));
#1679=IFCCARTESIANPOINT((679.0,0.,0.));
#1680=IFCCARTESIANPOINT((680.0,0.,0.));
#1681=IFCCARTESIANPOINT((681.0,0.,0.));
#1682=IFCCARTESIANPOINT((682.0,0.,0.));
#1683=IFCCARTESIANPOINT((683.0,0.,0.));
#1684=IFCCARTESIANPOINT((684.0,0.,0.));
#1685=IFCCARTESIANPOINT((685.0,0.,0.));
#1686=IFCCARTESIANPOINT((686.0,0.,0.));
#1687=IFCCARTESIANPOINT((687.0,0.,0.));
#1688=IFCCARTESIANPOINT((688.0,0.,0.));
#1689=IFCCARTESIANPOINT((689.0,0.,0.));
#1690=IFCCARTESIANPOINT((690.0,0.,0.));
#1691=IFCCARTESIANPOINT((691.0,0.,0.));
#1692=IFCCARTESIANPOINT((692.0,0.,0.));
#1693=IFCCARTESIANPOINT((693.0,0.,0.));
#1694=IFCCARTESIANPOINT((694.0,0.,0.));
#1695=IFCCARTESIANPOINT((695.0,0.,0.));
#1696=IFCCARTESIANPOINT((696.0,0.,0.));
#1697=IFCCARTESIANPOINT((697.0,0.,0.));
#1698=IFCCARTESIANPOINT((698.0,0.,0.));
#1699=IFCCARTESIANPOINT((699.0,0.,0.));
#1700=IFCCARTESIANPOINT((700.0,0.,0.));
#1701=IFCCARTESIANPOINT((701.0,0.,0.));
#1702=IFCCARTESIANPOINT((702.0,0.,0.));
#1703=IFCCARTESIANPOINT((703.0,0.,0.));
#1704=IFCCARTESIANPOINT((704.0,0.,0.));
#1705=IFCCARTESIANPOINT((705.0,0.,0.));
#1706=IFCCARTESIANPOINT((706.0,0.,0.));
#1707=IFCCARTESIANPOINT((707.0,0.,0.));
#1708=IFCCARTESIANPOINT((708.0,0.,0.));
#1709=IFCCARTESIANPOINT((709.0,0.,0.));
#1710=IFCCARTESIANPOINT((710.0,0.,0.));
#1711=IFCCARTESIANPOINT((711.0,0.,0.));
#1712=IFCCARTESIANPOINT((712.0,0.,0.));
#1713=IFCCARTESIANPOINT((713.0,0.,0.));
#1714=IFCCARTESIANPOINT((714.0,0.,0.));
#1715=IFCCARTESIANPOINT((715.0,0.,0.));
#1716=IFCCARTESIANPOINT((716.0,0.,0.));
#1717=IFCCARTESIANPOINT((717.0,0.,0.));
#1718=IFCCARTESIANPOINT((718.0,0.,0.));
#1719=IFCCARTESIANPOINT((719.0,0.,0.));
#1720=IFCCARTESIANPOINT((720.0,0.,0.));
#1721=IFCCARTESIANPOINT((721.0,0.,0.));
#1722=IFCCARTESIANPOINT((722.0,0.,0.));
#1723=IFCCARTESIANPOINT((723.0,0.,0.));
#1724=IFCCARTESIANPOINT((724.0,0.,0.));
#1725=IFCCARTESIANPOINT((725.0,0.,0.));
#1726=IFCCARTESIANPOINT((726.0,0.,0.));
#1727=IFCCARTESIANPOINT((727.0,0.,0.));
#1728=IFCCARTESIANPOINT((728.0,0.,0.));
#1729=IFCCARTESIANPOINT((729.0,0.,0.));
#1730=IFCCARTESIANPOINT((730.0,0.,0.));
#1731=IFCCARTESIANPOINT((731.0,0.,0.));
#1732=IFCCARTESIANPOINT((732.0,0.,0.));
#1733=IFCCARTESIANPOINT((733.0,0.,0.));
#1734=IFCCARTESIANPOINT((734.0,0.,0.));
#1735=IFCCARTESIANPOINT((735.0,0.,0.));
#1736=IFCCARTESIANPOINT((736.0,0.,0.));
#1737=IFCCARTESIANPOINT((737.0,0.,0.));
#1738=IFCCARTESIANPOINT((738.0,0.,0.));
#1739=IFCCARTESIANPOINT((739.0,0.,0.));
#1740=IFCCARTESIANPOINT((740.0,0.,0.));
#1741=IFCCARTESIANPOINT((741.0,0.,0.));
#1742=IFCCARTESIANPOINT((742.0,0.,0.));
#1743=IFCCARTESIANPOINT((743.0,0.,0.));
#1744=IFCCARTESIANPOINT((744.0,0.,0.));
#1745=IFCCARTESIANPOINT((745.0,0.,0.));
#1746=IFCCARTESIANPOINT((746.0,0.,0.));
#1747=IFCCARTESIANPOINT((747.0,0.,0.));
#1748=IFCCARTESIANPOINT((748.0,0.,0.));
#1749=IFCCARTESIANPOINT((749.0,0.,0.));
#1750=IFCCARTESIANPOINT((750.0,0.,0.));
#1751=IFCCARTESIANPOINT((751.0,0.,0.));
#1752=IFCCARTESIANPOINT((752.0,0.,0.));
#1753=IFCCARTESIANPOINT((753.0,0.,0.));
#1754=IFCCARTESIANPOINT((754.0,0.,0.));
#1755=IFCCARTESIANPOINT((755.0,0.,0.));
#1756=IFCCARTESIANPOINT((756.0,0.,0.));
#1757=IFCCARTESIANPOINT((757.0,0.,0.));
#1758=IFCCARTESIANPOINT((758.0,0.,0.));
#1759=IFCCARTESIANPOINT((759.0,0.,0.));
#1760=IFCCARTESIANPOINT((760.0,0.,0.));
#1761=IFCCARTESIANPOINT((761.0,0.,0.));
#1762=IFCCARTESIANPOINT((762.0,0.,0.));
#1763=IFCCARTESIANPOINT((763.0,0.,0.));
#1764=IFCCARTESIANPOINT((764.0,0.,0.));
#1765=IFCCARTESIANPOINT((765.0,0.,0.));
#1766=IFCCARTESIANPOINT((766.0,0.,0.));
#1767=IFCCARTESIANPOINT((767.0,0.,0.));
#1768=IFCCARTESIANPOINT((768.0,0.,0.));
#1769=IFCCARTESIANPOINT((769.0,0.,0.));
#1770=IFCCARTESIANPOINT((770.0,0.,0.));
#1771=IFCCARTESIANPOINT((771.0,0.,0.));
#1772=IFCCARTESIANPOINT((772.0,0.,0.));
#1773=IFCCARTESIANPOINT((773.0,0.,0.));
#1774=IFCCARTESIANPOINT((774.0,0.,0.));
#1775=IFCCARTESIANPOINT((775.0,0.,0.));
#1776=IFCCARTESIANPOINT((776.0,0.,0.));
#1777=IFCCARTESIANPOINT((777.0,0.,0.));
#1778=IFCCARTESIANPOINT((778.0,0.,0.));
#1779=IFCCARTESIANPOINT((779.0,0.,0.));
#1780=IFCCARTESIANPOINT((780.0,0.,0.));
#1781=IFCCARTESIANPOINT((781.0,0.,0.));
#1782=IFCCARTESIANPOINT((782.0,0.,0.));
#1783=IFCCARTESIANPOINT((783.0,0.,0.));
#1784=IFCCARTESIANPOINT((784.0,0.,0.));
#1785=IFCCARTESIANPOINT((785.0,0.,0.));
#1786=IFCCARTESIANPOINT((786.0,0.,0.));
#1787=IFCCARTESIANPOINT((787.0,0.,0.));
#1788=IFCCARTESIANPOINT((788.0,0.,0.));
#1789=IFCCARTESIANPOINT((789.0,0.,0.));
#1790=IFCCARTESIANPOINT((790.0,0.,0.));
#1791=IFCCARTESIANPOINT((791.0,0.,0.));
#1792=IFCCARTESIANPOINT((792.0,0.,0.));
#1793=IFCCARTESIANPOINT((793.0,0.,0.));
#1794=IFCCARTESIANPOINT((794.0,0.,0.));
#1795=IFCCARTESIANPOINT((795.0,0.,0.));
#1796=IFCCARTESIANPOINT((796.0,0.,0.));
#1797=IFCCARTESIANPOINT((797.0,0.,0.));
#1798=IFCCARTESIANPOINT((798.0,0.,0.));
#1799=IFCCARTESIANPOINT((799.0,0.,0.));
#1800=IFCCARTESIANPOINT((800.0,0.,0.));
#1801=IFCCARTESIANPOINT((801.0,0.,0.));
#1802=IFCCARTESIANPOINT((802.0,0.,0.));
#1803=IFCCARTESIANPOINT((803.0,0.,0.));
#1804=IFCCARTESIANPOINT((804.0,0.,0.));
#1805=IFCCARTESIANPOINT((805.0,0.,0.));
#1806=IFCCARTESIANPOINT((806.0,0.,0.));
#1807=IFCCARTESIANPOINT((807.0,0.,0.));
#1808=IFCCARTESIANPOINT((808.0,0.,0.));
#1809=IFCCARTESIANPOINT((809.0,0.,0.));
#1810=IFCCARTESIANPOINT((810.0,0.,0.));
#1811=IFCCARTESIANPOINT((811.0,0.,0.));
#1812=IFCCARTESIANPOINT((812.0,0.,0.));
#1813=IFCCARTESIANPOINT((813.0,0.,0.));
#1814=IFCCARTESIANPOINT((814.0,0.,0.));
#1815=IFCCARTESIANPOINT((815.0,0.,0.));
#1816=IFCCARTESIANPOINT((816.0,0.,0.));
#1817=IFCCARTESIANPOINT((817.0,0.,0.));
#1818=IFCCARTESIANPOINT((818.0,0.,0.));
#1819=IFCCARTESIANPOINT((819.0,0.,0.));
#1820=IFCCARTESIANPOINT((820.0,0.,0.));
#1821=IFCCARTESIANPOINT((821.0,0.,0.));
#1822=IFCCARTESIANPOINT((822.0,0.,0.));
#1823=IFCCARTESIANPOINT((823.0,0.,0.));
#1824=IFCCARTESIANPOINT((824.0,0.,0.));
#1825=IFCCARTESIANPOINT((825.0,0.,0.));
#1826=IFCCARTESIANPOINT((826.0,0.,0.));
#1827=IFCCARTESIANPOINT((827.0,0.,0.));
#1828=IFCCARTESIANPOINT((828.0,0.,0.));
#1829=IFCCARTESIANPOINT((829.0,0.,0.));
#1830=IFCCARTESIANPOINT((830.0,0.,0.));
#1831=IFCCARTESIANPOINT((831.0,0.,0.));
#1832=IFCCARTESIANPOINT((832.0,0.,0.));
#1833=IFCCARTESIANPOINT((833.0,0.,0.));
#1834=IFCCARTESIANPOINT((834.0,0.,0.));
#1835=IFCCARTESIANPOINT((835.0,0.,0.));
#1836=IFCCARTESIANPOINT((836.0,0.,0.));
#1837=IFCCARTESIANPOINT((837.0,0.,0.));
#1838=IFCCARTESIANPOINT((838.0,0.,0.));
#1839=IFCCARTESIANPOINT((839.0,0.,0.));
#1840=IFCCARTESIANPOINT((840.0,0.,0.));
#1841=IFCCARTESIANPOINT((841.0,0.,0.));
#1842=IFCCARTESIANPOINT((842.0,0.,0.));
#1843=IFCCARTESIANPOINT((843.0,0.,0.));
#1844=IFCCARTESIANPOINT((844.0,0.,0.));
#1845=IFCCARTESIANPOINT((845.0,0.,0.));
#1846=IFCCARTESIANPOINT((846.0,0.,0.));
#1847=IFCCARTESIANPOINT((847.0,0.,0.));
#1848=IFCCARTESIANPOINT((848.0,0.,0.));
#1849=IFCCARTESIANPOINT((849.0,0.,0.));
#1850=IFCCARTESIANPOINT((850.0,0.,0.));
#1851=IFCCARTESIANPOINT((851.0,0.,0.));
#1852=IFCCARTESIANPOINT((852.0,0.,0.));
#1853=IFCCARTESIANPOINT((853.0,0.,0.));
#1854=IFCCARTESIANPOINT((854.0,0.,0.));
#1855=IFCCARTESIANPOINT((855.0,0.,0.));
#1856=IFCCARTESIANPOINT((856.0,0.,0.));
#1857=IFCCARTESIANPOINT((857.0,0.,0.));
#1858=IFCCARTESIANPOINT((858.0,0.,0.));
#1859=IFCCARTESIANPOINT((859.0,0.,0.));
#1860=IFCCARTESIANPOINT((860.0,0.,0.));
#1861=IFCCARTESIANPOINT((861.0,0.,0.));
#1862=IFCCARTESIANPOINT((862.0,0.,0.));
#1863=IFCCARTESIANPOINT((863.0,0.,0.));
#1864=IFCCARTESIANPOINT((864.0,0.,0.));
#1865=IFCCARTESIANPOINT((865.0,0.,0.));
#1866=IFCCARTESIANPOINT((866.0,0.,0.));
#1867=IFCCARTESIANPOINT((867.0,0.,0.));
#1868=IFCCARTESIANPOINT((868.0,0.,0.));
#1869=IFCCARTESIANPOINT((869.0,0.,0.));
#1870=IFCCARTESIANPOINT((870.0,0.,0.));
#1871=IFCCARTESIANPOINT((871.0,0.,0.));
#1872=IFCCARTESIANPOINT((872.0,0.,0.));
#1873=IFCCARTESIANPOINT((873.0,0.,0.));
#1874=IFCCARTESIANPOINT((874.0,0.,0.));
#1875=IFCCARTESIANPOINT((875.0,0.,0.));
#1876=IFCCARTESIANPOINT((876.0,0.,0.));
#1877=IFCCARTESIANPOINT((877.0,0.,0.));
#1878=IFCCARTESIANPOINT((878.0,0.,0.));
#1879=IFCCARTESIANPOINT((879.0,0.,0.));
#1880=IFCCARTESIANPOINT((880.0,0.,0.));
#1881=IFCCARTESIANPOINT((881.0,0.,0.));
#1882=IFCCARTESIANPOINT((882.0,0.,0.));
#1883=IFCCARTESIANPOINT((883.0,0.,0.));
#1884=IFCCARTESIANPOINT((884.0,0.,0.));
#1885=IFCCARTESIANPOINT((885.0,0.,0.));
#1886=IFCCARTESIANPOINT((886.0,0.,0.));
#1887=IFCCARTESIANPOINT((887.0,0.,0.));
#1888=IFCCARTESIANPOINT((888.0,0.,0.));
#1889=IFCCARTESIANPOINT((889.0,0.,0.));
#1890=IFCCARTESIANPOINT((890.0,0.,0.));
#1891=IFCCARTESIANPOINT((891.0,0.,0.));
#1892=IFCCARTESIANPOINT((892.0,0.,0.));
#1893=IFCCARTESIANPOINT((893.0,0.,0.));
#1894=IFCCARTESIANPOINT((894.0,0.,0.));
#1895=IFCCARTESIANPOINT((895.0,0.,0.));
#1896=IFCCARTESIANPOINT((896.0,0.,0.));
#1897=IFCCARTESIANPOINT((897.0,0.,0.));
#1898=IFCCARTESIANPOINT((898.0,0.,0.));
#1899=IFCCARTESIANPOINT((899.0,0.,0.));
#1900=IFCCARTESIANPOINT((900.0,0.,0.));
#1901=IFCCARTESIANPOINT((901.0,0.,0.));
#1902=IFCCARTESIANPOINT((902.0,0.,0.));
#1903=IFCCARTESIANPOINT((903.0,0.,0.));
#1904=IFCCARTESIANPOINT((904.0,0.,0.));
#1905=IFCCARTESIANPOINT((905.0,0.,0.));
#1906=IFCCARTESIANPOINT((906.0,0.,0.));
#1907=IFCCARTESIANPOINT((907.0,0.,0.));
#1908=IFCCARTESIANPOINT((908.0,0.,0.));
#1909=IFCCARTESIANPOINT((909.0,0.,0.));
#1910=IFCCARTESIANPOINT((910.0,0.,0.));
#1911=IFCCARTESIANPOINT((911.0,0.,0.));
#1912=IFCCARTESIANPOINT((912.0,0.,0.));
#1913=IFCCARTESIANPOINT((913.0,0.,0.));
#1914=IFCCARTESIANPOINT((914.0,0.,0.));
#1915=IFCCARTESIANPOINT((915.0,0.,0.));
#1916=IFCCARTESIANPOINT((916.0,0.,0.));
#1917=IFCCARTESIANPOINT((917.0,0.,0.));
#1918=IFCCARTESIANPOINT((918.0,0.,0.));
#1919=IFCCARTESIANPOINT((919.0,0.,0.));
#1920=IFCCARTESIANPOINT((920.0,0.,0.));
#1921=IFCCARTESIANPOINT((921.0,0.,0.));
#1922=IFCCARTESIANPOINT((922.0,0.,0.));
#1923=IFCCARTESIANPOINT((923.0,0.,0.));
#1924=IFCCARTESIANPOINT((924.0,0.,0.));
#1925=IFCCARTESIANPOINT((925.0,0.,0.));
#1926=IFCCARTESIANPOINT((926.0,0.,0.));
#1927=IFCCARTESIANPOINT((927.0,0.,0.));
#1928=IFCCARTESIANPOINT((928.0,0.,0.));
#1929=IFCCARTESIANPOINT((929.0,0.,0.));
#1930=IFCCARTESIANPOINT((930.0,0.,0.));
#1931=IFCCARTESIANPOINT((931.0,0.,0.));
#1932=IFCCARTESIANPOINT((932.0,0.,0.));
#1933=IFCCARTESIANPOINT((933.0,0.,0.));
#1934=IFCCARTESIANPOINT((934.0,0.,0.));
#1935=IFCCARTESIANPOINT((935.0,0.,0.));
#1936=IFCCARTESIANPOINT((936.0,0.,0.));
#1937=IFCCARTESIANPOINT((937.0,0.,0.));
#1938=IFCCARTESIANPOINT((938.0,0.,0.));
#1939=IFCCARTESIANPOINT((939.0,0.,0.));
#1940=IFCCARTESIANPOINT((940.0,0.,0.));
#1941=IFCCARTESIANPOINT((941.0,0.,0.));
#1942=IFCCARTESIANPOINT((942.0,0.,0.));
#1943=IFCCARTESIANPOINT((943.0,0.,0.));
#1944=IFCCARTESIANPOINT((944.0,0.,0.));
#1945=IFCCARTESIANPOINT((945.0,0.,0.));
#1946=IFCCARTESIANPOINT((946.0,0.,0.));
#1947=IFCCARTESIANPOINT((947.0,0.,0.));
#1948=IFCCARTESIANPOINT((948.0,0.,0.));
#1949=IFCCARTESIANPOINT((949.0,0.,0.));
#1950=IFCCARTESIANPOINT((950.0,0.,0.));
#1951=IFCCARTESIANPOINT((951.0,0.,0.));
#1952=IFCCARTESIANPOINT((952.0,0.,0.));
#1953=IFCCARTESIANPOINT((953.0,0.,0.));
#1954=IFCCARTESIANPOINT((954.0,0.,0.));
#1955=IFCCARTESIANPOINT((955.0,0.,0.));
#1956=IFCCARTESIANPOINT((956.0,0.,0.));
#1957=IFCCARTESIANPOINT((957.0,0.,0.));
#1958=IFCCARTESIANPOINT((958.0,0.,0.));
#1959=IFCCARTESIANPOINT((959.0,0.,0.));
#1960=IFCCARTESIANPOINT((960.0,0.,0.));
#1961=IFCCARTESIANPOINT((961.0,0.,0.));
#1962=IFCCARTESIANPOINT((962.0,0.,0.));
#1963=IFCCARTESIANPOINT((963.0,0.,0.));
#1964=IFCCARTESIANPOINT((964.0,0.,0.));
#1965=IFCCARTESIANPOINT((965.0,0.,0.));
#1966=IFCCARTESIANPOINT((966.0,0.,0.));
#1967=IFCCARTESIANPOINT((967.0,0.,0.));
#1968=IFCCARTESIANPOINT((968.0,0.,0.));
#1969=IFCCARTESIANPOINT((969.0,0.,0.));
#1970=IFCCARTESIANPOINT((970.0,0.,0.));
#1971=IFCCARTESIANPOINT((971.0,0.,0.));
#1972=IFCCARTESIANPOINT((972.0,0.,0.));
#1973=IFCCARTESIANPOINT((973.0,0.,0.));
#1974=IFCCARTESIANPOINT((974.0,0.,0.));
#1975=IFCCARTESIANPOINT((975.0,0.,0.));
#1976=IFCCARTESIANPOINT((976.0,0.,0.));
#1977=IFCCARTESIANPOINT((977.0,0.,0.));
#1978=IFCCARTESIANPOINT((978.0,0.,0.));
#1979=IFCCARTESIANPOINT((979.0,0.,0.));
#1980=IFCCARTESIANPOINT((980.0,0.,0.));
#1981=IFCCARTESIANPOINT((981.0,0.,0.));
#1982=IFCCARTESIANPOINT((982.0,0.,0.));
#1983=IFCCARTESIANPOINT((983.0,0.,0.));
#1984=IFCCARTESIANPOINT((984.0,0.,0.));
#1985=IFCCARTESIANPOINT((985.0,0.,0.));
#1986=IFCCARTESIANPOINT((986.0,0.,0.));
#1987=IFCCARTESIANPOINT((987.0,0.,0.));
#1988=IFCCARTESIANPOINT((988.0,0.,0.));
#1989=IFCCARTESIANPOINT((989.0,0.,0.));
#1990=IFCCARTESIANPOINT((990.0,0.,0.));
#1991=IFCCARTESIANPOINT((991.0,0.,0.));
#1992=IFCCARTESIANPOINT((992.0,0.,0.));
#1993=IFCCARTESIANPOINT((993.0,0.,0.));
#1994=IFCCARTESIANPOINT((994.0,0.,0.));
#1995=IFCCARTESIANPOINT((995.0,0.,0.));
#1996=IFCCARTESIANPOINT((996.0,0.,0.));
#1997=IFCCARTESIANPOINT((997.0,0.,0.));
#1998=IFCCARTESIANPOINT((998.0,0.,0.));
#1999=IFCCARTESIANPOINT((999.0,0.,0.));
#2000=IFCCARTESIANPOINT((1000.0,0.,0.));
#2001=IFCCARTESIANPOINT((1001.0,0.,0.));
#2002=IFCCARTESIANPOINT((1002.0,0.,0.));
#2003=IFCCARTESIANPOINT((1003.0,0.,0.));
#2004=IFCCARTESIANPOINT((1004.0,0.,0.));
#2005=IFCCARTESIANPOINT((1005.0,0.,0.));
#2006=IFCCARTESIANPOINT((1006.0,0.,0.));
#2007=IFCCARTESIANPOINT((1007.0,0.,0.));
#2008=IFCCARTESIANPOINT((1008.0,0.,0.));
#2009=IFCCARTESIANPOINT((1009.0,0.,0.));
#2010=IFCCARTESIANPOINT((1010.0,0.,0.));
#2011=IFCCARTESIANPOINT((1011.0,0.,0.));
#2012=IFCCARTESIANPOINT((1012.0,0.,0.));
#2013=IFCCARTESIANPOINT((1013.0,0.,0.));
#2014=IFCCARTESIANPOINT((1014.0,0.,0.));
#2015=IFCCARTESIANPOINT((1015.0,0.,0.));
#2016=IFCCARTESIANPOINT((1016.0,0.,0.));
#2017=IFCCARTESIANPOINT((1017.0,0.,0.));
#2018=IFCCARTESIANPOINT((1018.0,0.,0.));
#2019=IFCCARTESIANPOINT((1019.0,0.,0.));
#2020=IFCCARTESIANPOINT((1020.0,0.,0.));
#2021=IFCCARTESIANPOINT((1021.0,0.,0.));
#2022=IFCCARTESIANPOINT((1022.0,0.,0.));
#2023=IFCCARTESIANPOINT((1023.0,0.,0.));
#2024=IFCCARTESIANPOINT((1024.0,0.,0.));
#2025=IFCCARTESIANPOINT((1025.0,0.,0.));
#2026=IFCCARTESIANPOINT((1026.0,0.,0.));
#2027=IFCCARTESIANPOINT((1027.0,0.,0.));
#2028=IFCCARTESIANPOINT((1028.0,0.,0.));
#2029=IFCCARTESIANPOINT((1029.0,0.,0.));
#2030=IFCCARTESIANPOINT((1030.0,0.,0.));
#2031=IFCCARTESIANPOINT((1031.0,0.,0.));
#2032=IFCCARTESIANPOINT((1032.0,0.,0.));
#2033=IFCCARTESIANPOINT((1033.0,0.,0.));
#2034=IFCCARTESIANPOINT((1034.0,0.,0.));
#2035=IFCCARTESIANPOINT((1035.0,0.,0.));
#2036=IFCCARTESIANPOINT((1036.0,0.,0.));
#2037=IFCCARTESIANPOINT((1037.0,0.,0.));
#2038=IFCCARTESIANPOINT((1038.0,0.,0.));
#2039=IFCCARTESIANPOINT((1039.0,0.,0.));
#2040=IFCCARTESIANPOINT((1040.0,0.,0.));
#2041=IFCCARTESIANPOINT((1041.0,0.,0.));
#2042=IFCCARTESIANPOINT((1042.0,0.,0.));
#2043=IFCCARTESIANPOINT((1043.0,0.,0.));
#2044=IFCCARTESIANPOINT((1044.0,0.,0.));
#2045=IFCCARTESIANPOINT((1045.0,0.,0.));
#2046=IFCCARTESIANPOINT((1046.0,0.,0.));
#2047=IFCCARTESIANPOINT((1047.0,0.,0.));
#2048=IFCCARTESIANPOINT((1048.0,0.,0.));
#2049=IFCCARTESIANPOINT((1049.0,0.,0.));
#2050=IFCCARTESIANPOINT((1050.0,0.,0.));
#2051=IFCCARTESIANPOINT((1051.0,0.,0.));
#2052=IFCCARTESIANPOINT((1052.0,0.,0.));
#2053=IFCCARTESIANPOINT((1053.0,0.,0.));
#2054=IFCCARTESIANPOINT((1054.0,0.,0.));
#2055=IFCCARTESIANPOINT((1055.0,0.,0.));
#2056=IFCCARTESIANPOINT((1056.0,0.,0.));
#2057=IFCCARTESIANPOINT((1057.0,0.,0.));
#2058=IFCCARTESIANPOINT((1058.0,0.,0.));
#2059=IFCCARTESIANPOINT((1059.0,0.,0.));
#2060=IFCCARTESIANPOINT((1060.0,0.,0.));
#2061=IFCCARTESIANPOINT((1061.0,0.,0.));
#2062=IFCCARTESIANPOINT((1062.0,0.,0.));
#2063=IFCCARTESIANPOINT((1063.0,0.,0.));
#2064=IFCCARTESIANPOINT((1064.0,0.,0.));
#2065=IFCCARTESIANPOINT((1065.0,0.,0.));
#2066=IFCCARTESIANPOINT((1066.0,0.,0.));
#2067=IFCCARTESIANPOINT((1067.0,0.,0.));
#2068=IFCCARTESIANPOINT((1068.0,0.,0.));
#2069=IFCCARTESIANPOINT((1069.0,0.,0.));
#2070=IFCCARTESIANPOINT((1070.0,0.,0.));
#2071=IFCCARTESIANPOINT((1071.0,0.,0.));
#2072=IFCCARTESIANPOINT((1072.0,0.,0.));
#2073=IFCCARTESIANPOINT((1073.0,0.,0.));
#2074=IFCCARTESIANPOINT((1074.0,0.,0.));
#2075=IFCCARTESIANPOINT((1075.0,0.,0.));
#2076=IFCCARTESIANPOINT((1076.0,0.,0.));
#2077=IFCCARTESIANPOINT((1077.0,0.,0.));
#2078=IFCCARTESIANPOINT((1078.0,0.,0.));
#2079=IFCCARTESIANPOINT((1079.0,0.,0.));
#2080=IFCCARTESIANPOINT((1080.0,0.,0.));
#2081=IFCCARTESIANPOINT((1081.0,0.,0.));
#2082=IFCCARTESIANPOINT((1082.0,0.,0.));
#2083=IFCCARTESIANPOINT((1083.0,0.,0.));
#2084=IFCCARTESIANPOINT((1084.0,0.,0.));
#2085=IFCCARTESIANPOINT((1085.0,0.,0.));
#2086=IFCCARTESIANPOINT((1086.0,0.,0.));
#2087=IFCCARTESIANPOINT((1087.0,0.,0.));
#2088=IFCCARTESIANPOINT((1088.0,0.,0.));
#2089=IFCCARTESIANPOINT((1089.0,0.,0.));
#2090=IFCCARTESIANPOINT((1090.0,0.,0.));
#2091=IFCCARTESIANPOINT((1091.0,0.,0.));
#2092=IFCCARTESIANPOINT((1092.0,0.,0.));
#2093=IFCCARTESIANPOINT((1093.0,0.,0.));
#2094=IFCCARTESIANPOINT((1094.0,0.,0.));
#2095=IFCCARTESIANPOINT((1095.0,0.,0.));
#2096=IFCCARTESIANPOINT((1096.0,0.,0.));
#2097=IFCCARTESIANPOINT((1097.0,0.,0.));
#2098=IFCCARTESIANPOINT((1098.0,0.,0.));
#2099=IFCCARTESIANPOINT((1099.0,0.,0.));
#2100=IFCCARTESIANPOINT((1100.0,0.,0.));
#2101=IFCCARTESIANPOINT((1101.0,0.,0.));
#2102=IFCCARTESIANPOINT((1102.0,0.,0.));
#2103=IFCCARTESIANPOINT((1103.0,0.,0.));
#2104=IFCCARTESIANPOINT((1104.0,0.,0.));
#2105=IFCCARTESIANPOINT((1105.0,0.,0.));
#2106=IFCCARTESIANPOINT((1106.0,0.,0.));
#2107=IFCCARTESIANPOINT((1107.0,0.,0.));
#2108=IFCCARTESIANPOINT((1108.0,0.,0.));
#2109=IFCCARTESIANPOINT((1109.0,0.,0.));
#2110=IFCCARTESIANPOINT((1110.0,0.,0.));
#2111=IFCCARTESIANPOINT((1111.0,0.,0.));
#2112=IFCCARTESIANPOINT((1112.0,0.,0.));
#2113=IFCCARTESIANPOINT((1113.0,0.,0.));
#2114=IFCCARTESIANPOINT((1114.0,0.,0.));
#2115=IFCCARTESIANPOINT((1115.0,0.,0.));
#2116=IFCCARTESIANPOINT((1116.0,0.,0.));
#2117=IFCCARTESIANPOINT((1117.0,0.,0.));
#2118=IFCCARTESIANPOINT((1118.0,0.,0.));
#2119=IFCCARTESIANPOINT((1119.0,0.,0.));
#2120=IFCCARTESIANPOINT((1120.0,0.,0.));
#2121=IFCCARTESIANPOINT((1121.0,0.,0.));
#2122=IFCCARTESIANPOINT((1122.0,0.,0.));
#2123=IFCCARTESIANPOINT((1123.0,0.,0.));
#2124=IFCCARTESIANPOINT((1124.0,0.,0.));
#2125=IFCCARTESIANPOINT((1125.0,0.,0.));
#2126=IFCCARTESIANPOINT((1126.0,0.,0.));
#2127=IFCCARTESIANPOINT((1127.0,0.,0.));
#2128=IFCCARTESIANPOINT((1128.0,0.,0.));
#2129=IFCCARTESIANPOINT((1129.0,0.,0.));
#2130=IFCCARTESIANPOINT((1130.0,0.,0.));
#2131=IFCCARTESIANPOINT((1131.0,0.,0.));
#2132=IFCCARTESIANPOINT((1132.0,0.,0.));
#2133=IFCCARTESIANPOINT((1133.0,0.,0.));
#2134=IFCCARTESIANPOINT((1134.0,0.,0.));
#2135=IFCCARTESIANPOINT((1135.0,0.,0.));
#2136=IFCCARTESIANPOINT((1136.0,0.,0.));
#2137=IFCCARTESIANPOINT((1137.0,0.,0.));
#2138=IFCCARTESIANPOINT((1138.0,0.,0.));
#2139=IFCCARTESIANPOINT((1139.0,0.,0.));
#2140=IFCCARTESIANPOINT((1140.0,0.,0.));
#2141=IFCCARTESIANPOINT((1141.0,0.,0.));
#2142=IFCCARTESIANPOINT((1142.0,0.,0.));
#2143=IFCCARTESIANPOINT((1143.0,0.,0.));
#2144=IFCCARTESIANPOINT((1144.0,0.,0.));
#2145=IFCCARTESIANPOINT((1145.0,0.,0.));
#2146=IFCCARTESIANPOINT((1146.0,0.,0.));
#2147=IFCCARTESIANPOINT((1147.0,0.,0.));
#2148=IFCCARTESIANPOINT((1148.0,0.,0.));
#2149=IFCCARTESIANPOINT((1149.0,0.,0.));
#2150=IFCCARTESIANPOINT((1150.0,0.,0.));
#2151=IFCCARTESIANPOINT((1151.0,0.,0.));
#2152=IFCCARTESIANPOINT((1152.0,0.,0.));
#2153=IFCCARTESIANPOINT((1153.0,0.,0.));
#2154=IFCCARTESIANPOINT((1154.0,0.,0.));
#2155=IFCCARTESIANPOINT((1155.0,0.,0.));
#2156=IFCCARTESIANPOINT((1156.0,0.,0.));
#2157=IFCCARTESIANPOINT((1157.0,0.,0.));
#2158=IFCCARTESIANPOINT((1158.0,0.,0.));
#2159=IFCCARTESIANPOINT((1159.0,0.,0.));
#2160=IFCCARTESIANPOINT((1160.0,0.,0.));
#2161=IFCCARTESIANPOINT((1161.0,0.,0.));
#2162=IFCCARTESIANPOINT((1162.0,0.,0.));
#2163=IFCCARTESIANPOINT((1163.0,0.,0.));
#2164=IFCCARTESIANPOINT((1164.0,0.,0.));
#2165=IFCCARTESIANPOINT((1165.0,0.,0.));
#2166=IFCCARTESIANPOINT((1166.0,0.,0.));
#2167=IFCCARTESIANPOINT((1167.0,0.,0.));
#2168=IFCCARTESIANPOINT((1168.0,0.,0.));
#2169=IFCCARTESIANPOINT((1169.0,0.,0.));
#2170=IFCCARTESIANPOINT((1170.0,0.,0.));
#2171=IFCCARTESIANPOINT((1171.0,0.,0.));
#2172=IFCCARTESIANPOINT((1172.0,0.,0.));
#2173=IFCCARTESIANPOINT((1173.0,0.,0.));
#2174=IFCCARTESIANPOINT((1174.0,0.,0.));
#2175=IFCCARTESIANPOINT((1175.0,0.,0.));
#2176=IFCCARTESIANPOINT((1176.0,0.,0.));
#2177=IFCCARTESIANPOINT((1177.0,0.,0.));
#2178=IFCCARTESIANPOINT((1178.0,0.,0.));
#2179=IFCCARTESIANPOINT((1179.0,0.,0.));
#2180=IFCCARTESIANPOINT((1180.0,0.,0.));
#2181=IFCCARTESIANPOINT((1181.0,0.,0.));
#2182=IFCCARTESIANPOINT((1182.0,0.,0.));
#2183=IFCCARTESIANPOINT((1183.0,0.,0.));
#2184=IFCCARTESIANPOINT((1184.0,0.,0.));
#2185=IFCCARTESIANPOINT((1185.0,0.,0.));
#2186=IFCCARTESIANPOINT((1186.0,0.,0.));
#2187=IFCCARTESIANPOINT((1187.0,0.,0.));
#2188=IFCCARTESIANPOINT((1188.0,0.,0.));
#2189=IFCCARTESIANPOINT((1189.0,0.,0.));
#2190=IFCCARTESIANPOINT((1190.0,0.,0.));
#2191=IFCCARTESIANPOINT((1191.0,0.,0.));
#2192=IFCCARTESIANPOINT((1192.0,0.,0.));
#2193=IFCCARTESIANPOINT((1193.0,0.,0.));
#2194=IFCCARTESIANPOINT((1194.0,0.,0.));
#2195=IFCCARTESIANPOINT((1195.0,0.,0.));
#2196=IFCCARTESIANPOINT((1196.0,0.,0.));
#2197=IFCCARTESIANPOINT((1197.0,0.,0.));
#2198=IFCCARTESIANPOINT((1198.0,0.,0.));
#2199=IFCCARTESIANPOINT((1199.0,0.,0.));
#2200=IFCCARTESIANPOINT((1200.0,0.,0.));
#2201=IFCCARTESIANPOINT((1201.0,0.,0.));
#2202=IFCCARTESIANPOINT((1202.0,0.,0.));
#2203=IFCCARTESIANPOINT((1203.0,0.,0.));
#2204=IFCCARTESIANPOINT((1204.0,0.,0.));
#2205=IFCCARTESIANPOINT((1205.0,0.,0.));
#2206=IFCCARTESIANPOINT((1206.0,0.,0.));
#2207=IFCCARTESIANPOINT((1207.0,0.,0.));
#2208=IFCCARTESIANPOINT((1208.0,0.,0.));
#2209=IFCCARTESIANPOINT((1209.0,0.,0.));
#2210=IFCCARTESIANPOINT((1210.0,0.,0.));
#2211=IFCCARTESIANPOINT((1211.0,0.,0.));
#2212=IFCCARTESIANPOINT((1212.0,0.,0.));
#2213=IFCCARTESIANPOINT((1213.0,0.,0.));
#2214=IFCCARTESIANPOINT((1214.0,0.,0.));
#2215=IFCCARTESIANPOINT((1215.0,0.,0.));
#2216=IFCCARTESIANPOINT((1216.0,0.,0.));
#2217=IFCCARTESIANPOINT((1217.0,0.,0.));
#2218=IFCCARTESIANPOINT((1218.0,0.,0.));
#2219=IFCCARTESIANPOINT((1219.0,0.,0.));
#2220=IFCCARTESIANPOINT((1220.0,0.,0.));
#2221=IFCCARTESIANPOINT((1221.0,0.,0.));
#2222=IFCCARTESIANPOINT((1222.0,0.,0.));
#2223=IFCCARTESIANPOINT((1223.0,0.,0.));
#2224=IFCCARTESIANPOINT((1224.0,0.,0.));
#2225=IFCCARTESIANPOINT((1225.0,0.,0.));
#2226=IFCCARTESIANPOINT((1226.0,0.,0.));
#2227=IFCCARTESIANPOINT((1227.0,0.,0.));
#2228=IFCCARTESIANPOINT((1228.0,0.,0.));
#2229=IFCCARTESIANPOINT((1229.0,0.,0.));
#2230=IFCCARTESIANPOINT((1230.0,0.,0.));
#2231=IFCCARTESIANPOINT((1231.0,0.,0.));
#2232=IFCCARTESIANPOINT((1232.0,0.,0.));
#2233=IFCCARTESIANPOINT((1233.0,0.,0.));
#2234=IFCCARTESIANPOINT((1234.0,0.,0.));
#2235=IFCCARTESIANPOINT((1235.0,0.,0.));
#2236=IFCCARTESIANPOINT((1236.0,0.,0.));
#2237=IFCCARTESIANPOINT((1237.0,0.,0.));
#2238=IFCCARTESIANPOINT((1238.0,0.,0.));
#2239=IFCCARTESIANPOINT((1239.0,0.,0.));
#2240=IFCCARTESIANPOINT((1240.0,0.,0.));
#2241=IFCCARTESIANPOINT((1241.0,0.,0.));
#2242=IFCCARTESIANPOINT((1242.0,0.,0.));
#2243=IFCCARTESIANPOINT((1243.0,0.,0.));
#2244=IFCCARTESIANPOINT((1244.0,0.,0.));
#2245=IFCCARTESIANPOINT((1245.0,0.,0.));
#2246=IFCCARTESIANPOINT((1246.0,0.,0.));
#2247=IFCCARTESIANPOINT((1247.0,0.,0.));
#2248=IFCCARTESIANPOINT((1248.0,0.,0.));
#2249=IFCCARTESIANPOINT((1249.0,0.,0.));
#2250=IFCCARTESIANPOINT((1250.0,0.,0.));
#2251=IFCCARTESIANPOINT((1251.0,0.,0.));
#2252=IFCCARTESIANPOINT((1252.0,0.,0.));
#2253=IFCCARTESIANPOINT((1253.0,0.,0.));
#2254=IFCCARTESIANPOINT((1254.0,0.,0.));
#2255=IFCCARTESIANPOINT((1255.0,0.,0.));
#2256=IFCCARTESIANPOINT((1256.0,0.,0.));
#2257=IFCCARTESIANPOINT((1257.0,0.,0.));
#2258=IFCCARTESIANPOINT((1258.0,0.,0.));
#2259=IFCCARTESIANPOINT((1259.0,0.,0.));
#2260=IFCCARTESIANPOINT((1260.0,0.,0.));
#2261=IFCCARTESIANPOINT((1261.0,0.,0.));
#2262=IFCCARTESIANPOINT((1262.0,0.,0.));
#2263=IFCCARTESIANPOINT((1263.0,0.,0.));
#2264=IFCCARTESIANPOINT((1264.0,0.,0.));
#2265=IFCCARTESIANPOINT((1265.0,0.,0.));
#2266=IFCCARTESIANPOINT((1266.0,0.,0.));
#2267=IFCCARTESIANPOINT((1267.0,0.,0.));
#2268=IFCCARTESIANPOINT((1268.0,0.,0.));
#2269=IFCCARTESIANPOINT((1269.0,0.,0.));
#2270=IFCCARTESIANPOINT((1270.0,0.,0.));
#2271=IFCCARTESIANPOINT((1271.0,0.,0.));
#2272=IFCCARTESIANPOINT((1272.0,0.,0.));
#2273=IFCCARTESIANPOINT((1273.0,0.,0.));
#2274=IFCCARTESIANPOINT((1274.0,0.,0.));
#2275=IFCCARTESIANPOINT((1275.0,0.,0.));
#2276=IFCCARTESIANPOINT((1276.0,0.,0.));
#2277=IFCCARTESIANPOINT((1277.0,0.,0.));
#2278=IFCCARTESIANPOINT((1278.0,0.,0.));
#2279=IFCCARTESIANPOINT((1279.0,0.,0.));
#2280=IFCCARTESIANPOINT((1280.0,0.,0.));
#2281=IFCCARTESIANPOINT((1281.0,0.,0.));
#2282=IFCCARTESIANPOINT((1282.0,0.,0.));
#2283=IFCCARTESIANPOINT((1283.0,0.,0.));
#2284=IFCCARTESIANPOINT((1284.0,0.,0.));
#2285=IFCCARTESIANPOINT((1285.0,0.,0.));
#2286=IFCCARTESIANPOINT((1286.0,0.,0.));
#2287=IFCCARTESIANPOINT((1287.0,0.,0.));
#2288=IFCCARTESIANPOINT((1288.0,0.,0.));
#2289=IFCCARTESIANPOINT((1289.0,0.,0.));
#2290=IFCCARTESIANPOINT((1290.0,0.,0.));
#2291=IFCCARTESIANPOINT((1291.0,0.,0.));
#2292=IFCCARTESIANPOINT((1292.0,0.,0.));
#2293=IFCCARTESIANPOINT((1293.0,0.,0.));
#2294=IFCCARTESIANPOINT((1294.0,0.,0.));
#2295=IFCCARTESIANPOINT((1295.0,0.,0.));
#2296=IFCCARTESIANPOINT((1296.0,0.,0.));
#2297=IFCCARTESIANPOINT((1297.0,0.,0.));
#2298=IFCCARTESIANPOINT((1298.0,0.,0.));
#2299=IFCCARTESIANPOINT((1299.0,0.,0.));
#2300=IFCCARTESIANPOINT((1300.0,0.,0.));
#2301=IFCCARTESIANPOINT((1301.0,0.,0.));
#2302=IFCCARTESIANPOINT((1302.0,0.,0.));
#2303=IFCCARTESIANPOINT((1303.0,0.,0.));
#2304=IFCCARTESIANPOINT((1304.0,0.,0.));
#2305=IFCCARTESIANPOINT((1305.0,0.,0.));
#2306=IFCCARTESIANPOINT((1306.0,0.,0.));
#2307=IFCCARTESIANPOINT((1307.0,0.,0.));
#2308=IFCCARTESIANPOINT((1308.0,0.,0.));
#2309=IFCCARTESIANPOINT((1309.0,0.,0.));
#2310=IFCCARTESIANPOINT((1310.0,0.,0.));
#2311=IFCCARTESIANPOINT((1311.0,0.,0.));
#2312=IFCCARTESIANPOINT((1312.0,0.,0.));
#2313=IFCCARTESIANPOINT((1313.0,0.,0.));
#2314=IFCCARTESIANPOINT((1314.0,0.,0.));
#2315=IFCCARTESIANPOINT((1315.0,0.,0.));
#2316=IFCCARTESIANPOINT((1316.0,0.,0.));
#2317=IFCCARTESIANPOINT((1317.0,0.,0.));
#2318=IFCCARTESIANPOINT((1318.0,0.,0.));
#2319=IFCCARTESIANPOINT((1319.0,0.,0.));
#2320=IFCCARTESIANPOINT((1320.0,0.,0.));
#2321=IFCCARTESIANPOINT((1321.0,0.,0.));
#2322=IFCCARTESIANPOINT((1322.0,0.,0.));
#2323=IFCCARTESIANPOINT((1323.0,0.,0.));
#2324=IFCCARTESIANPOINT((1324.0,0.,0.));
#2325=IFCCARTESIANPOINT((1325.0,0.,0.));
#2326=IFCCARTESIANPOINT((1326.0,0.,0.));
#2327=IFCCARTESIANPOINT((1327.0,0.,0.));
#2328=IFCCARTESIANPOINT((1328.0,0.,0.));
#2329=IFCCARTESIANPOINT((1329.0,0.,0.));
#2330=IFCCARTESIANPOINT((1330.0,0.,0.));
#2331=IFCCARTESIANPOINT((1331.0,0.,0.));
#2332=IFCCARTESIANPOINT((1332.0,0.,0.));
#2333=IFCCARTESIANPOINT((1333.0,0.,0.));
#2334=IFCCARTESIANPOINT((1334.0,0.,0.));
#2335=IFCCARTESIANPOINT((1335.0,0.,0.));
#2336=IFCCARTESIANPOINT((1336.0,0.,0.));
#2337=IFCCARTESIANPOINT((1337.0,0.,0.));
#2338=IFCCARTESIANPOINT((1338.0,0.,0.));
#2339=IFCCARTESIANPOINT((1339.0,0.,0.));
#2340=IFCCARTESIANPOINT((1340.0,0.,0.));
#2341=IFCCARTESIANPOINT((1341.0,0.,0.));
#2342=IFCCARTESIANPOINT((1342.0,0.,0.));
#2343=IFCCARTESIANPOINT((1343.0,0.,0.));
#2344=IFCCARTESIANPOINT((1344.0,0.,0.));
#2345=IFCCARTESIANPOINT((1345.0,0.,0.));
#2346=IFCCARTESIANPOINT((1346.0,0.,0.));
#2347=IFCCARTESIANPOINT((1347.0,0.,0.));
#2348=IFCCARTESIANPOINT((1348.0,0.,0.));
#2349=IFCCARTESIANPOINT((1349.0,0.,0.));
#2350=IFCCARTESIANPOINT((1350.0,0.,0.));
#2351=IFCCARTESIANPOINT((1351.0,0.,0.));
#2352=IFCCARTESIANPOINT((1352.0,0.,0.));
#2353=IFCCARTESIANPOINT((1353.0,0.,0.));
#2354=IFCCARTESIANPOINT((1354.0,0.,0.));
#2355=IFCCARTESIANPOINT((1355.0,0.,0.));
#2356=IFCCARTESIANPOINT((1356.0,0.,0.));
#2357=IFCCARTESIANPOINT((1357.0,0.,0.));
#2358=IFCCARTESIANPOINT((1358.0,0.,0.));
#2359=IFCCARTESIANPOINT((1359.0,0.,0.));
#2360=IFCCARTESIANPOINT((1360.0,0.,0.));
#2361=IFCCARTESIANPOINT((1361.0,0.,0.));
#2362=IFCCARTESIANPOINT((1362.0,0.,0.));
#2363=IFCCARTESIANPOINT((1363.0,0.,0.));
#2364=IFCCARTESIANPOINT((1364.0,0.,0.));
#2365=IFCCARTESIANPOINT((1365.0,0.,0.));
#2366=IFCCARTESIANPOINT((1366.0,0.,0.));
#2367=IFCCARTESIANPOINT((1367.0,0.,0.));
#2368=IFCCARTESIANPOINT((1368.0,0.,0.));
#2369=IFCCARTESIANPOINT((1369.0,0.,0.));
#2370=IFCCARTESIANPOINT((1370.0,0.,0.));
#2371=IFCCARTESIANPOINT((1371.0,0.,0.));
#2372=IFCCARTESIANPOINT((1372.0,0.,0.));
#2373=IFCCARTESIANPOINT((1373.0,0.,0.));
#2374=IFCCARTESIANPOINT((1374.0,0.,0.));
#2375=IFCCARTESIANPOINT((1375.0,0.,0.));
#2376=IFCCARTESIANPOINT((1376.0,0.,0.));
#2377=IFCCARTESIANPOINT((1377.0,0.,0.));
#2378=IFCCARTESIANPOINT((1378.0,0.,0.));
#2379=IFCCARTESIANPOINT((1379.0,0.,0.));
#2380=IFCCARTESIANPOINT((1380.0,0.,0.));
#2381=IFCCARTESIANPOINT((1381.0,0.,0.));
#2382=IFCCARTESIANPOINT((1382.0,0.,0.));
#2383=IFCCARTESIANPOINT((1383.0,0.,0.));
#2384=IFCCARTESIANPOINT((1384.0,0.,0.));
#2385=IFCCARTESIANPOINT((1385.0,0.,0.));
#2386=IFCCARTESIANPOINT((1386.0,0.,0.));
#2387=IFCCARTESIANPOINT((1387.0,0.,0.));
#2388=IFCCARTESIANPOINT((1388.0,0.,0.));
#2389=IFCCARTESIANPOINT((1389.0,0.,0.));
#2390=IFCCARTESIANPOINT((1390.0,0.,0.));
#2391=IFCCARTESIANPOINT((1391.0,0.,0.));
#2392=IFCCARTESIANPOINT((1392.0,0.,0.));
#2393=IFCCARTESIANPOINT((1393.0,0.,0.));
#2394=IFCCARTESIANPOINT((1394.0,0.,0.));
#2395=IFCCARTESIANPOINT((1395.0,0.,0.));
#2396=IFCCARTESIANPOINT((1396.0,0.,0.));
#2397=IFCCARTESIANPOINT((1397.0,0.,0.));
#2398=IFCCARTESIANPOINT((1398.0,0.,0.));
#2399=IFCCARTESIANPOINT((1399.0,0.,0.));
#2400=IFCCARTESIANPOINT((1400.0,0.,0.));
#2401=IFCCARTESIANPOINT((1401.0,0.,0.));
#2402=IFCCARTESIANPOINT((1402.0,0.,0.));
#2403=IFCCARTESIANPOINT((1403.0,0.,0.));
#2404=IFCCARTESIANPOINT((1404.0,0.,0.));
#2405=IFCCARTESIANPOINT((1405.0,0.,0.));
#2406=IFCCARTESIANPOINT((1406.0,0.,0.));
#2407=IFCCARTESIANPOINT((1407.0,0.,0.));
#2408=IFCCARTESIANPOINT((1408.0,0.,0.));
#2409=IFCCARTESIANPOINT((1409.0,0.,0.));
#2410=IFCCARTESIANPOINT((1410.0,0.,0.));
#2411=IFCCARTESIANPOINT((1411.0,0.,0.));
#2412=IFCCARTESIANPOINT((1412.0,0.,0.));
#2413=IFCCARTESIANPOINT((1413.0,0.,0.));
#2414=IFCCARTESIANPOINT((1414.0,0.,0.));
#2415=IFCCARTESIANPOINT((1415.0,0.,0.));
#2416=IFCCARTESIANPOINT((1416.0,0.,0.));
#2417=IFCCARTESIANPOINT((1417.0,0.,0.));
#2418=IFCCARTESIANPOINT((1418.0,0.,0.));
#2419=IFCCARTESIANPOINT((1419.0,0.,0.));
#2420=IFCCARTESIANPOINT((1420.0,0.,0.));
#2421=IFCCARTESIANPOINT((1421.0,0.,0.));
#2422=IFCCARTESIANPOINT((1422.0,0.,0.));
#2423=IFCCARTESIANPOINT((1423.0,0.,0.));
#2424=IFCCARTESIANPOINT((1424.0,0.,0.));
#2425=IFCCARTESIANPOINT((1425.0,0.,0.));
#2426=IFCCARTESIANPOINT((1426.0,0.,0.));
#2427=IFCCARTESIANPOINT((1427.0,0.,0.));
#2428=IFCCARTESIANPOINT((1428.0,0.,0.));
#2429=IFCCARTESIANPOINT((1429.0,0.,0.));
#2430=IFCCARTESIANPOINT((1430.0,0.,0.));
#2431=IFCCARTESIANPOINT((1431.0,0.,0.));
#2432=IFCCARTESIANPOINT((1432.0,0.,0.));
#2433=IFCCARTESIANPOINT((1433.0,0.,0.));
#2434=IFCCARTESIANPOINT((1434.0,0.,0.));
#2435=IFCCARTESIANPOINT((1435.0,0.,0.));
#2436=IFCCARTESIANPOINT((1436.0,0.,0.));
#2437=IFCCARTESIANPOINT((1437.0,0.,0.));
#2438=IFCCARTESIANPOINT((1438.0,0.,0.));
#2439=IFCCARTESIANPOINT((1439.0,0.,0.));
#2440=IFCCARTESIANPOINT((1440.0,0.,0.));
#2441=IFCCARTESIANPOINT((1441.0,0.,0.));
#2442=IFCCARTESIANPOINT((1442.0,0.,0.));
#2443=IFCCARTESIANPOINT((1443.0,0.,0.));
#2444=IFCCARTESIANPOINT((1444.0,0.,0.));
#2445=IFCCARTESIANPOINT((1445.0,0.,0.));
#2446=IFCCARTESIANPOINT((1446.0,0.,0.));
#2447=IFCCARTESIANPOINT((1447.0,0.,0.));
#2448=IFCCARTESIANPOINT((1448.0,0.,0.));
#2449=IFCCARTESIANPOINT((1449.0,0.,0.));
#2450=IFCCARTESIANPOINT((1450.0,0.,0.));
#2451=IFCCARTESIANPOINT((1451.0,0.,0.));
#2452=IFCCARTESIANPOINT((1452.0,0.,0.));
#2453=IFCCARTESIANPOINT((1453.0,0.,0.));
#2454=IFCCARTESIANPOINT((1454.0,0.,0.));
#2455=IFCCARTESIANPOINT((1455.0,0.,0.));
#2456=IFCCARTESIANPOINT((1456.0,0.,0.));
#2457=IFCCARTESIANPOINT((1457.0,0.,0.));
#2458=IFCCARTESIANPOINT((1458.0,0.,0.));
#2459=IFCCARTESIANPOINT((1459.0,0.,0.));
#2460=IFCCARTESIANPOINT((1460.0,0.,0.));
#2461=IFCCARTESIANPOINT((1461.0,0.,0.));
#2462=IFCCARTESIANPOINT((1462.0,0.,0.));
#2463=IFCCARTESIANPOINT((1463.0,0.,0.));
#2464=IFCCARTESIANPOINT((1464.0,0.,0.));
#2465=IFCCARTESIANPOINT((1465.0,0.,0.));
#2466=IFCCARTESIANPOINT((1466.0,0.,0.));
#2467=IFCCARTESIANPOINT((1467.0,0.,0.));
#2468=IFCCARTESIANPOINT((1468.0,0.,0.));
#2469=IFCCARTESIANPOINT((1469.0,0.,0.));
#2470=IFCCARTESIANPOINT((1470.0,0.,0.));
#2471=IFCCARTESIANPOINT((1471.0,0.,0.));
#2472=IFCCARTESIANPOINT((1472.0,0.,0.));
#2473=IFCCARTESIANPOINT((1473.0,0.,0.));
#2474=IFCCARTESIANPOINT((1474.0,0.,0.));
#2475=IFCCARTESIANPOINT((1475.0,0.,0.));
#2476=IFCCARTESIANPOINT((1476.0,0.,0.));
#2477=IFCCARTESIANPOINT((1477.0,0.,0.));
#2478=IFCCARTESIANPOINT((1478.0,0.,0.));
#2479=IFCCARTESIANPOINT((1479.0,0.,0.));
#2480=IFCCARTESIANPOINT((1480.0,0.,0.));
#2481=IFCCARTESIANPOINT((1481.0,0.,0.));
#2482=IFCCARTESIANPOINT((1482.0,0.,0.));
#2483=IFCCARTESIANPOINT((1483.0,0.,0.));
#2484=IFCCARTESIANPOINT((1484.0,0.,0.));
#2485=IFCCARTESIANPOINT((1485.0,0.,0.));
#2486=IFCCARTESIANPOINT((1486.0,0.,0.));
#2487=IFCCARTESIANPOINT((1487.0,0.,0.));
#2488=IFCCARTESIANPOINT((1488.0,0.,0.));
#2489=IFCCARTESIANPOINT((1489.0,0.,0.));
#2490=IFCCARTESIANPOINT((1490.0,0.,0.));
#2491=IFCCARTESIANPOINT((1491.0,0.,0.));
#2492=IFCCARTESIANPOINT((1492.0,0.,0.));
#2493=IFCCARTESIANPOINT((1493.0,0.,0.));
#2494=IFCCARTESIANPOINT((1494.0,0.,0.));
#2495=IFCCARTESIANPOINT((1495.0,0.,0.));
#2496=IFCCARTESIANPOINT((1496.0,0.,0.));
#2497=IFCCARTESIANPOINT((1497.0,0.,0.));
#2498=IFCCARTESIANPOINT((1498.0,0.,0.));
#2499=IFCCARTESIANPOINT((1499.0,0.,0.));
ENDSEC;
END-ISO-10303-21;
